<svg width="56" height="48" viewBox="0 0 56 48" fill="none" xmlns="http://www.w3.org/2000/svg">
<path d="M2.5 28L10.4866 9.41961M2.5 28L24.2029 35.4745M2.5 28L15.2016 20.4627M10.4866 9.41961L30.3467 2M10.4866 9.41961L15.2016 20.4627M30.3467 2L46.0633 7.69412M30.3467 2L29.9245 20.5M46.0633 7.69412L53.5 23M46.0633 7.69412L29.9245 20.5M53.5 23L50.6354 37.5451L40.0283 45V36M53.5 23L40.0283 36M53.5 23L24.4705 34.9485M53.5 23L29.9245 20.5M24.2029 35.4745L15.2016 20.4627M24.2029 35.4745L29.9245 20.5M24.2029 35.4745L40.0283 36M15.2016 20.4627L29.9245 20.5" stroke="#F82249" stroke-width="3"/>
</svg>
