<svg width="56" height="48" viewBox="0 0 56 48" fill="none" xmlns="http://www.w3.org/2000/svg">
<path d="M37.7486 36.7491H20.9411M37.7486 36.7491C37.7486 36.7491 40.3266 36.7491 41.9784 36.7491M37.7486 36.7491V26.476V16.203M37.7486 16.203V9H8.91976V12.5424M37.7486 16.203H50.5493L53.9997 25.6494V36.7491H49.77M20.9411 36.7491C20.9411 34.3875 19.1601 32.4982 16.934 32.4982C14.7078 32.4982 12.9269 34.3875 12.9269 36.7491M20.9411 36.7491C20.9411 39.1107 19.1601 41 16.934 41C14.7078 41 12.9269 39.1107 12.9269 36.7491M12.9269 36.7491H8.91976V33.9151M41.9784 36.7491C41.9784 34.3875 43.648 32.4982 45.8742 32.4982C48.1003 32.4982 49.77 34.3875 49.77 36.7491M41.9784 36.7491C41.9157 39.1098 43.648 41 45.8742 41C48.1003 41 49.77 39.1107 49.77 36.7491M3.49465 12.5424C9.74807 12.5424 8.91976 12.5424 8.91976 12.5424M8.91976 33.9151H2.94495M8.91976 33.9151V23.2288V12.5424M1.5 22.5793H5.35321" stroke="#F82249" stroke-width="3"/>
</svg>
