<svg width="61" height="32" viewBox="0 0 61 32" fill="none" xmlns="http://www.w3.org/2000/svg">
<path d="M19.8325 30.9697H17.1484V21.0781H19.8325" fill="#2F3338"/>
<path d="M13.57 21.2178C13.3178 21.1482 12.3855 20.8633 11.1228 20.8633C7.8566 20.8633 5.45898 23.0292 5.45898 25.9833C5.45898 29.1704 8.10569 31.1062 11.1228 31.1062C12.3214 31.1062 13.2364 30.8421 13.57 30.7541V28.0988C13.4546 28.1584 12.5773 28.6238 11.3152 28.6238C9.52709 28.6238 8.37376 27.4534 8.37376 25.9833C8.37376 24.4684 9.57696 23.3449 11.3152 23.3449C12.5989 23.3449 13.462 23.8206 13.57 23.873" fill="#2F3338"/>
<path d="M41.2803 21.2178C41.028 21.1482 40.0957 20.8633 38.833 20.8633C35.5669 20.8633 33.1693 23.0291 33.1693 25.9833C33.1693 29.1704 35.816 31.1062 38.833 31.1062C40.0317 31.1062 40.9467 30.8421 41.2803 30.7541V28.0988C41.1649 28.1584 40.2876 28.6238 39.0254 28.6238C37.2374 28.6238 36.084 27.4534 36.084 25.9833C36.084 24.4684 37.2872 23.3449 39.0254 23.3449C40.3091 23.3449 41.1723 23.8206 41.2803 23.873" fill="#2F3338"/>
<path d="M2.66265 10.3234C2.66265 9.63349 2.06466 9.07422 1.33133 9.07422C0.598842 9.07422 0 9.63349 0 10.3234V12.9512C0 13.6449 0.598842 14.2045 1.33133 14.2045C2.06466 14.2045 2.66265 13.6449 2.66265 12.9512" fill="#2F3338"/>
<path d="M31.6597 10.2648C31.6597 9.57489 31.0617 9.01562 30.3284 9.01562C29.5959 9.01562 28.9971 9.57489 28.9971 10.2648V12.8926C28.9971 13.5863 29.5959 14.1459 30.3284 14.1459C31.0617 14.1459 31.6597 13.5863 31.6597 12.8926" fill="#2F3338"/>
<path d="M60.6558 10.3234C60.6558 9.63349 60.0578 9.07422 59.3245 9.07422C58.592 9.07422 57.9932 9.63349 57.9932 10.3234V12.9512C57.9932 13.6449 58.592 14.2045 59.3245 14.2045C60.0578 14.2045 60.6558 13.6449 60.6558 12.9512" fill="#2F3338"/>
<path d="M9.8814 6.83205C9.8814 6.14237 9.28341 5.58203 8.55008 5.58203C7.81674 5.58203 7.21875 6.14237 7.21875 6.83205V12.9088C7.21875 13.6025 7.81674 14.162 8.55008 14.162C9.28341 14.162 9.8814 13.6025 9.8814 12.9088V6.83205Z" fill="#2F3338"/>
<path d="M24.441 6.83205C24.441 6.14237 23.843 5.58203 23.1096 5.58203C22.3763 5.58203 21.7783 6.14237 21.7783 6.83205V12.9088C21.7783 13.6025 22.3763 14.162 23.1096 14.162C23.843 14.162 24.441 13.6025 24.441 12.9088V6.83205Z" fill="#2F3338"/>
<path d="M53.3765 6.83205C53.3765 6.14237 52.7785 5.58203 52.0452 5.58203C51.3119 5.58203 50.7139 6.14237 50.7139 6.83205V12.9088C50.7139 13.6025 51.3119 14.162 52.0452 14.162C52.7785 14.162 53.3765 13.6025 53.3765 12.9088V6.83205Z" fill="#2F3338"/>
<path d="M38.939 6.83205C38.939 6.14237 38.341 5.58203 37.6077 5.58203C36.8744 5.58203 36.2764 6.14237 36.2764 6.83205V12.9088C36.2764 13.6025 36.8744 14.162 37.6077 14.162C38.341 14.162 38.939 13.6025 38.939 12.9088V6.83205Z" fill="#2F3338"/>
<path d="M17.161 2.14011C17.161 1.45016 16.5627 0.890625 15.8294 0.890625C15.0963 0.890625 14.498 1.45016 14.498 2.14011V15.4324C14.498 16.1264 15.0963 16.6857 15.8294 16.6857C16.5627 16.6857 17.161 16.1264 17.161 15.4324V2.14011Z" fill="#2F3338"/>
<path d="M46.1581 2.14011C46.1581 1.45016 45.5598 0.890625 44.8265 0.890625C44.0934 0.890625 43.4951 1.45016 43.4951 2.14011V15.4324C43.4951 16.1264 44.0934 16.6857 44.8265 16.6857C45.5598 16.6857 46.1581 16.1264 46.1581 15.4324V2.14011Z" fill="#2F3338"/>
<path d="M52.4274 25.956C52.4274 27.3952 51.242 28.5596 49.6514 28.5596C48.0592 28.5596 46.8769 27.3952 46.8769 25.956C46.8769 24.5196 48.0592 23.3547 49.6514 23.3547C51.242 23.3547 52.4274 24.5196 52.4274 25.956ZM49.6514 20.8359C46.3802 20.8359 44.0342 23.1307 44.0342 25.956C44.0342 28.7857 46.3802 31.0789 49.6514 31.0789C52.9224 31.0789 55.2719 28.7857 55.2719 25.956C55.2719 23.1307 52.9224 20.8359 49.6514 20.8359Z" fill="#2F3338"/>
<path d="M27.2709 20.8359C28.5775 20.8359 29.8071 21.1309 29.887 21.1511V23.2627C29.847 23.2511 28.7172 22.961 27.7889 22.961C26.7129 22.961 26.1286 23.2959 26.1286 23.7716C26.1286 24.3739 26.9172 24.5839 27.359 24.7136L28.0995 24.9329C29.8413 25.4478 30.6348 26.5574 30.6348 27.7626C30.6348 30.2474 28.2853 31.082 26.2315 31.082C24.8035 31.082 23.4669 30.838 23.3348 30.8119V28.5356C23.5717 28.5912 24.6964 28.9033 25.8696 28.9033C27.2046 28.9033 27.8186 28.5403 27.8186 27.9798C27.8186 27.4785 27.2873 27.1891 26.6217 26.9944C26.459 26.9443 26.2147 26.8731 26.049 26.8223C24.5536 26.3829 23.3076 25.5662 23.3076 23.9285C23.3076 22.0783 24.797 20.8359 27.2709 20.8359Z" fill="#2F3338"/>
</svg>
