<svg width="60" height="28" viewBox="0 0 60 28" fill="none" xmlns="http://www.w3.org/2000/svg">
<path d="M3.8451 16.5617H6.82924C7.39487 16.5617 7.92326 16.9809 7.95194 17.5364H7.97912V15.2535H3.8451L3.84309 11.2463H7.83167C8.39982 11.2463 8.92871 11.664 8.9584 12.218H8.98457L8.98054 9.93353L0.610352 9.93711V9.96212C1.17397 9.99327 1.59668 10.5988 1.59668 11.1646V21.6621C1.59668 22.2258 1.17397 22.8339 0.610352 22.8661V22.8906H4.83344V22.8661C4.26932 22.8339 3.84309 22.2258 3.84309 21.6621L3.8451 16.5617Z" fill="#2F3338"/>
<path d="M12.4867 19.4071C12.4867 20.754 13.5938 21.9187 14.9601 21.9187C16.3248 21.9187 17.4359 20.7387 17.4359 19.3912V11.1644C17.4359 10.5986 17.0117 9.99305 16.4466 9.96191V9.9374L20.6727 9.93331V9.96191C20.1086 9.99305 19.6813 10.5986 19.6813 11.1644V19.1584C19.6813 21.7313 17.5789 23.2305 14.9711 23.2305C12.3589 23.2305 10.2338 21.7313 10.2338 19.1584L10.2393 11.1644C10.2393 10.5986 9.81305 9.99305 9.25195 9.96191V9.93331H13.472V9.96191C12.9094 9.99612 12.4847 10.6022 12.4847 11.1644L12.4867 19.4071Z" fill="#2F3338"/>
<path d="M47.0162 12.0317C46.3081 10.8742 44.6923 11.0136 44.6923 11.0136C42.0493 11.0136 42.1741 13.0534 42.1741 13.0534C42.1741 13.0534 41.9925 14.0767 43.3205 14.7747L45.9629 16.1952C48.5138 17.5799 48.2113 19.5478 48.2113 19.5478C48.2113 19.5478 48.3266 23.2242 42.9919 23.2242C42.9919 23.2242 41.4419 23.2722 40.5643 22.9392L39.8135 20.5583H39.8396C40.6524 21.7439 43.0135 21.915 43.0135 21.915C46.0112 21.7817 46.0319 19.7209 46.0319 19.7209C46.0319 19.7209 46.1667 18.8335 44.9932 18.1906L42.3633 16.7706C39.6177 15.2863 39.9322 13.2873 39.9322 13.2873C39.9322 13.2873 39.8673 9.67068 44.5871 9.67068C44.5871 9.67068 46.7057 9.72583 47.0434 10.0603V12.0317H47.0162Z" fill="#2F3338"/>
<path d="M26.4253 5.42809C26.8933 5.89274 27.5465 6.17817 28.2596 6.17817C29.6963 6.17817 30.8593 5.03136 30.8593 3.61392C30.8593 2.20057 29.6963 1.05171 28.2596 1.05171C28.2596 1.05171 26.2583 0.864315 25.3575 3.39078L25.3605 1.4944C26.0308 0.628925 27.0685 -0.000138283 28.2596 -0.000138283C30.2866 -0.000138283 31.9266 1.61643 31.9266 3.61392C31.9266 5.60834 30.2866 7.23104 28.2596 7.23104C27.2471 7.23104 26.3312 6.82817 25.6695 6.17102L24.4084 4.77248C24.0627 4.43191 23.5871 4.2246 23.0658 4.2246C22.0155 4.2246 21.1641 5.06199 21.1641 6.09648C21.1641 7.13504 22.0155 7.97448 23.0658 7.97448C23.0658 7.97448 24.4703 8.16034 25.3575 6.44318L25.3605 7.96171C24.817 8.61222 23.9872 9.02734 23.0658 9.02734C21.4263 9.02734 20.0947 7.71509 20.0947 6.09648C20.0947 4.48092 21.4263 3.17173 23.0658 3.17173C23.8825 3.17173 24.6243 3.49546 25.1627 4.02955L26.4253 5.42809Z" fill="#2F3338"/>
<path d="M27.1001 11.1367C27.1001 10.5704 26.6754 9.99039 26.1123 9.96128V9.93678H30.3289V9.96128C29.7693 9.99294 29.3425 10.5735 29.3425 11.1367V21.6567C29.3425 22.2214 29.7693 22.829 30.3289 22.8627V22.8867H26.1123V22.8627C26.6754 22.829 27.1001 22.2214 27.1001 21.6567V11.1367Z" fill="#2F3338"/>
<path d="M24.4529 11.1644C24.4529 10.5986 24.8767 9.99304 25.4403 9.96189V9.93687H21.2172V9.96189C21.7823 9.99304 22.204 10.5986 22.204 11.1644L22.2075 24.316C22.2075 24.316 22.1602 26.6382 20.3164 27.9745L20.3209 28C20.6848 27.9397 24.456 27.2336 24.456 23.5373L24.4529 11.1644Z" fill="#2F3338"/>
<path d="M30.3135 12.2672H30.3386C30.9103 11.2577 31.792 11.246 31.792 11.246H34.0781L34.0796 21.6618C34.0796 22.2255 33.6544 22.829 33.0913 22.8627V22.8867H37.3199V22.8627C36.7523 22.829 36.3255 22.2214 36.3255 21.6618L36.3286 11.246L38.2393 11.2414C38.8195 11.2414 39.279 11.6979 39.2956 12.2672H39.3187L40.0207 9.93269H31.0175L30.3135 12.2672Z" fill="#2F3338"/>
<path d="M51.3574 19.4071C51.3574 20.754 52.4645 21.9187 53.8312 21.9187C55.1945 21.9187 56.3066 20.7387 56.3066 19.3912V11.1644C56.3066 10.5986 55.8819 9.99305 55.3193 9.96191V9.9374L59.5424 9.93331V9.96191C58.9823 9.99305 58.5555 10.5986 58.5555 11.1644V19.1584C58.5555 21.7313 56.452 23.2305 53.8403 23.2305C51.2331 23.2305 49.1074 21.7313 49.1074 19.1584L49.1104 11.1644C49.1104 10.5986 48.6852 9.99305 48.1211 9.96191V9.93331H52.3452V9.96191C51.7796 9.99612 51.3543 10.6022 51.3543 11.1644L51.3574 19.4071Z" fill="#2F3338"/>
</svg>
