<svg width="49" height="48" viewBox="0 0 49 48" fill="none" xmlns="http://www.w3.org/2000/svg">
<circle cx="24.1445" cy="24" r="24" fill="#2F3338"/>
<path d="M26.0233 19.2962V28.7045H24.0666V24.6051H18.5339V28.7045H16.5771V19.2962H18.5339V23.5971H24.0666V19.2962H26.0233Z" fill="white"/>
<path d="M31.4865 20.0354C30.8118 20.0354 30.1955 20.1295 29.6377 20.3176C29.089 20.4968 28.5582 20.806 28.0454 21.245L27.4381 20.4386C27.9509 19.9995 28.5537 19.6546 29.2464 19.4037C29.9481 19.1528 30.7398 19.0273 31.6214 19.0273C32.3142 19.0273 32.9214 19.0901 33.4432 19.2155C33.965 19.341 34.4013 19.5157 34.7522 19.7397C35.103 19.9637 35.3639 20.228 35.5349 20.5327C35.7148 20.8373 35.8048 21.1644 35.8048 21.5138C35.8048 22.0873 35.6653 22.5622 35.3864 22.9385C35.1075 23.3059 34.6622 23.5926 34.0505 23.7987C34.7252 23.969 35.2515 24.2557 35.6293 24.6589C36.0162 25.0532 36.2096 25.5729 36.2096 26.218C36.2096 26.6033 36.1196 26.9662 35.9397 27.3067C35.7598 27.6382 35.4764 27.9294 35.0895 28.1803C34.7117 28.4222 34.2304 28.6149 33.6456 28.7582C33.0609 28.9016 32.3636 28.9733 31.554 28.9733C30.6723 28.9733 29.8582 28.8344 29.1115 28.5566C28.3738 28.2789 27.7485 27.9025 27.2357 27.4276L27.9104 26.6212C28.4232 27.0961 28.9675 27.4411 29.5433 27.6561C30.1191 27.8622 30.7443 27.9653 31.419 27.9653C32.3636 27.9653 33.0474 27.786 33.4702 27.4276C33.902 27.0692 34.1179 26.6212 34.1179 26.0836C34.1179 25.546 33.947 25.1338 33.6051 24.8471C33.2633 24.5514 32.737 24.4035 32.0263 24.4035H29.2599V23.3955H31.7564C33.0609 23.3955 33.7131 22.8131 33.7131 21.6482C33.7131 21.1733 33.5197 20.788 33.1328 20.4924C32.746 20.1877 32.1972 20.0354 31.4865 20.0354Z" fill="white"/>
<path d="M43.2315 27.9653C43.8432 27.9653 44.428 27.8622 44.9858 27.6561C45.5525 27.4411 46.0923 27.0961 46.6051 26.6212L47.2799 27.4276C46.7671 27.9025 46.1463 28.2789 45.4176 28.5566C44.6889 28.8344 43.9152 28.9733 43.0965 28.9733C42.2509 28.9733 41.4862 28.8658 40.8025 28.6507C40.1277 28.4357 39.5475 28.1176 39.0617 27.6964C38.5849 27.2753 38.216 26.7556 37.9551 26.1374C37.6942 25.5191 37.5638 24.8067 37.5638 24.0003C37.5638 23.1939 37.6897 22.4815 37.9416 21.8633C38.2025 21.245 38.5669 20.7253 39.0347 20.3042C39.5115 19.8831 40.0828 19.565 40.7485 19.3499C41.4142 19.1349 42.1519 19.0273 42.9616 19.0273C43.7803 19.0273 44.554 19.1662 45.2827 19.444C46.0114 19.7218 46.6321 20.0981 47.1449 20.573L46.4702 21.3794C45.9574 20.9045 45.4176 20.564 44.8508 20.3579C44.2931 20.1429 43.7083 20.0354 43.0965 20.0354C42.6107 20.0354 42.1564 20.116 41.7336 20.2773C41.3108 20.4296 40.9464 20.6671 40.6405 20.9897C40.3347 21.3122 40.0918 21.7244 39.9118 22.2262C39.7409 22.719 39.6554 23.3104 39.6554 24.0003C39.6554 24.6903 39.7409 25.2861 39.9118 25.7879C40.0918 26.2807 40.3392 26.6884 40.654 27.011C40.9779 27.3336 41.3557 27.5755 41.7876 27.7368C42.2284 27.8891 42.7097 27.9653 43.2315 27.9653Z" fill="white"/>
</svg>
