<svg width="61" height="67" viewBox="0 0 61 67" fill="none" xmlns="http://www.w3.org/2000/svg">
<path d="M18.7282 55.0645V61.2326C18.7282 62.9846 17.9111 63.9195 16.4264 63.9195C14.9333 63.9195 14.1113 62.9576 14.1113 61.1578V55.0712H12.0572V61.2326C12.0572 64.2642 13.6399 66.0014 16.3993 66.0014C19.1849 66.0014 20.7824 64.2309 20.7824 61.1437V55.0645H18.7282ZM26.2858 55.0645L21.8244 65.8335H23.9212L24.7823 63.7478L24.844 63.5915H29.4787L30.3877 65.8335H32.5415L28.1216 55.1282L28.0819 55.0645L26.2858 55.0645ZM38.4994 55.0645L36.2004 62.4743L33.9625 55.07H31.7765L35.3053 65.8402H37.0063L39.3098 58.7651L41.6117 65.8402H43.3271L46.8472 55.07H44.7171L42.4746 62.4743L40.175 55.0645H38.4994ZM58.6011 55.0645V65.8243H60.6282V55.0645H58.6011ZM0.459961 55.0651V65.8396H2.51467V61.4636H7.15403V65.8396H9.20931V55.0651H7.15403V59.4117H2.51467V55.0651H0.459961ZM48.5039 55.0724V65.8322H56.1513V63.8704H50.5309V61.2025H54.2682V59.24H50.5309V57.0343H55.9554V55.0724H48.5039ZM27.1561 57.7912L28.621 61.3986H28.6159L28.7155 61.6474H25.6078L25.7063 61.3986H25.7046L27.1561 57.7912Z" fill="#232527"/>
<path d="M26.0463 0.000138996C25.2313 0.0768389 23.0289 0.610207 23.0289 0.610207H23.028C18.0639 1.97537 16.8906 6.76836 16.8906 6.76836C16.6482 7.57433 16.5381 8.40031 16.5057 9.1785V10.2376C16.5716 11.874 16.9136 13.0959 16.9136 13.0959C18.5718 20.9189 26.7247 33.7732 28.4769 36.4735C28.6013 36.6047 28.7008 36.5573 28.7008 36.5573C28.8899 36.5018 28.8751 36.3087 28.8751 36.3087L28.8787 36.3097C31.5776 7.60802 26.0463 0.000166795 26.0463 0.000166795L26.0463 0.000138996ZM34.9638 0.000138996C34.9638 0.000138996 29.4084 7.61204 32.1093 36.3304H32.1129C32.1338 36.5127 32.2554 36.5507 32.2554 36.5507C32.4361 36.6252 32.5288 36.4405 32.5288 36.4405L32.5297 36.4423C34.3268 33.6731 42.4333 20.8888 44.0841 13.0958C44.0841 13.0958 44.9792 9.32399 44.1151 6.76821C44.1151 6.76821 42.888 1.90101 37.9176 0.61478C37.9176 0.61478 36.4852 0.227895 34.964 0L34.9638 0.000138996ZM9.33928 8.61644C9.33928 8.61644 4.60944 13.3929 4.37435 18.4567H4.37623V19.224C4.37983 19.2817 4.38257 19.3402 4.386 19.399C4.58974 23.4823 7.4768 25.8989 7.4768 25.8989C12.1285 30.7226 23.3919 36.8126 26.0092 38.1945C26.0459 38.209 26.1811 38.2561 26.2605 38.1493C26.2605 38.1493 26.3019 38.1159 26.3207 38.056V37.9288C26.3188 37.9216 26.3152 37.9143 26.3118 37.9062H26.3127C19.1451 21.2464 9.33939 8.61627 9.33939 8.61627L9.33928 8.61644ZM51.6593 8.61644C51.6593 8.61644 41.8832 21.2069 34.7187 37.833L34.7215 37.832C34.7215 37.832 34.6369 38.0248 34.7737 38.1493C34.7737 38.1493 34.8145 38.1821 34.871 38.1954H34.9701C34.9879 38.1899 35.007 38.1826 35.0259 38.169V38.1708C37.7143 36.7511 48.8905 30.7011 53.5203 25.8997C53.5203 25.8997 56.4522 23.3947 56.6058 19.3725C56.9443 13.7863 51.6594 8.61626 51.6594 8.61626L51.6593 8.61644ZM60.4583 25.1561C60.4583 25.1561 44.5203 34.2565 36.2796 40.1707L36.2805 40.1716L36.2824 40.1734C36.2824 40.1734 36.1329 40.2776 36.1851 40.4644C36.1851 40.4644 36.2633 40.615 36.3771 40.615V40.616C39.3288 40.6215 50.4981 40.6348 50.7781 40.5792C50.7781 40.5792 52.2224 40.5178 54.007 39.7884C54.007 39.7884 57.9799 38.4445 60.0435 33.6453C60.0435 33.6453 60.9864 31.6386 61 28.8193V28.6998C60.9931 27.6126 60.8492 26.409 60.4585 25.1561H60.4583ZM0.53584 25.1986C-0.91428 29.975 1.03794 33.8237 1.0411 33.8299C3.07556 38.4036 6.95902 39.7894 6.95902 39.7894C8.75197 40.5732 10.5453 40.6273 10.5453 40.6273C10.8254 40.6818 21.6971 40.6328 24.6101 40.6182C24.7334 40.6173 24.8013 40.4854 24.8013 40.4854C24.8098 40.4708 24.8174 40.4563 24.8208 40.443V40.3234C24.7966 40.2435 24.7323 40.187 24.7323 40.187L24.7341 40.186C16.4976 34.2738 0.53597 25.1988 0.53597 25.1988L0.53584 25.1986ZM24.2774 42.0866L5.5282 42.7861C7.56148 46.6426 10.9858 49.6397 14.5529 48.7193C17.0145 48.0645 22.5913 43.9257 24.4323 42.5272L24.4261 42.5218C24.5693 42.3849 24.5181 42.2751 24.5181 42.2751C24.471 42.096 24.2775 42.0962 24.2775 42.0962L24.2774 42.0866ZM36.6955 42.1012L36.6936 42.1085C36.6936 42.1085 36.529 42.1307 36.483 42.2619C36.483 42.2619 36.443 42.4411 36.5538 42.5302L36.5519 42.532C38.347 43.9016 43.7886 47.9494 46.4101 48.7353C46.4101 48.7353 46.8073 48.8791 47.4728 48.9048H47.8728C49.6292 48.8392 52.6889 47.8792 55.4693 42.7965L36.6955 42.1012Z" fill="#CF0A2C"/>
</svg>
