<svg width="45" height="48" viewBox="0 0 45 48" fill="none" xmlns="http://www.w3.org/2000/svg">
<path d="M13.8729 40.0469V44.5328C13.8729 45.807 13.2788 46.4869 12.1992 46.4869C11.1136 46.4869 10.5159 45.7873 10.5159 44.4784V40.0518H9.02235V44.5328C9.02235 46.7376 10.1731 48.001 12.1796 48.001C14.205 48.001 15.3665 46.7134 15.3665 44.4681V40.0469H13.8729ZM19.3681 40.0469L16.1242 47.8789H17.6488L18.2749 46.3621L18.3198 46.2484H21.6898L22.3507 47.8789H23.9167L20.703 40.0933L20.6741 40.0469L19.3681 40.0469ZM28.2488 40.0469L26.5772 45.4358L24.95 40.0509H23.3605L25.9263 47.8838H27.1631L28.8381 42.7382L30.5118 47.8838H31.7591L34.3186 40.0509H32.7697L31.1392 45.4358L29.4672 40.0469H28.2488ZM42.865 40.0469V47.8722H44.3389V40.0469H42.865ZM0.589844 40.0474V47.8833H2.08385V44.7008H5.45718V47.8833H6.9516V40.0474H5.45718V43.2085H2.08385V40.0474H0.589844ZM35.5232 40.0527V47.878H41.0837V46.4512H36.9971V44.5109H39.7145V43.0837H36.9971V41.4795H40.9413V40.0527H35.5232ZM20.001 42.0299L21.0661 44.6535H21.0624L21.1348 44.8345H18.8752L18.9468 44.6535H18.9455L20.001 42.0299Z" fill="#2F3338"/>
<path d="M19.1944 0.000101088C18.6018 0.0558827 17.0005 0.443786 17.0005 0.443786H16.9998C13.3904 1.43663 12.5372 4.92243 12.5372 4.92243C12.361 5.50859 12.2809 6.1093 12.2574 6.67525V7.44554C12.3053 8.63565 12.554 9.5243 12.554 9.5243C13.7597 15.2137 19.6877 24.5623 20.9618 26.5261C21.0522 26.6215 21.1246 26.5871 21.1246 26.5871C21.2621 26.5467 21.2513 26.4063 21.2513 26.4063L21.2539 26.407C23.2163 5.53309 19.1944 0.000121305 19.1944 0.000121305L19.1944 0.000101088ZM25.6785 0.000101088C25.6785 0.000101088 21.6391 5.53602 23.6029 26.4221H23.6056C23.6207 26.5547 23.7091 26.5823 23.7091 26.5823C23.8406 26.6365 23.9079 26.5021 23.9079 26.5021L23.9086 26.5034C25.2153 24.4895 31.1096 15.1918 32.31 9.5242C32.31 9.5242 32.9608 6.78107 32.3325 4.92232C32.3325 4.92232 31.4402 1.38255 27.8262 0.447111C27.8262 0.447111 26.7847 0.165742 25.6786 0L25.6785 0.000101088ZM7.04657 6.26649C7.04657 6.26649 3.60744 9.74026 3.43651 13.423H3.43787V13.981C3.44049 14.023 3.44248 14.0656 3.44497 14.1084C3.59312 17.078 5.69233 18.8355 5.69233 18.8355C9.07462 22.3436 17.2644 26.7728 19.1675 27.7777C19.1942 27.7883 19.2925 27.8225 19.3502 27.7449C19.3502 27.7449 19.3803 27.7206 19.394 27.677V27.5846C19.3926 27.5793 19.39 27.5739 19.3875 27.5681H19.3882C14.1765 15.4519 7.04664 6.26636 7.04664 6.26636L7.04657 6.26649ZM37.818 6.26649C37.818 6.26649 30.7097 15.4232 25.5003 27.5148L25.5023 27.5141C25.5023 27.5141 25.4408 27.6543 25.5402 27.7449C25.5402 27.7449 25.5699 27.7687 25.611 27.7784H25.6831C25.696 27.7744 25.7099 27.7691 25.7236 27.7592V27.7605C27.6784 26.728 35.8048 22.328 39.1711 18.8361C39.1711 18.8361 41.3029 17.0143 41.4146 14.0891C41.6608 10.0263 37.8181 6.26635 37.8181 6.26635L37.818 6.26649ZM44.2159 18.2953C44.2159 18.2953 32.6271 24.9137 26.6352 29.215L26.6359 29.2156L26.6373 29.217C26.6373 29.217 26.5285 29.2928 26.5665 29.4286C26.5665 29.4286 26.6233 29.5381 26.7061 29.5381V29.5388C28.8523 29.5428 36.9737 29.5525 37.1773 29.5121C37.1773 29.5121 38.2274 29.4674 39.525 28.9369C39.525 28.9369 42.4138 27.9595 43.9142 24.4692C43.9142 24.4692 44.5998 23.0098 44.6097 20.9595V20.8725C44.6047 20.0818 44.5001 19.2065 44.216 18.2953H44.2159ZM0.645475 18.3262C-0.408925 21.8 1.01056 24.599 1.01285 24.6035C2.49214 27.9298 5.31585 28.9377 5.31585 28.9377C6.61953 29.5077 7.92351 29.5471 7.92351 29.5471C8.12712 29.5867 16.0321 29.5511 18.1502 29.5405C18.2398 29.5398 18.2892 29.4439 18.2892 29.4439C18.2954 29.4333 18.3009 29.4227 18.3033 29.413V29.3261C18.2858 29.2679 18.239 29.2268 18.239 29.2268L18.2404 29.2261C12.2515 24.9263 0.64557 18.3264 0.64557 18.3264L0.645475 18.3262ZM17.9083 30.6084L4.27548 31.1171C5.7539 33.9218 8.24374 36.1016 10.8374 35.4321C12.6273 34.9559 16.6823 31.9459 18.0209 30.9288L18.0164 30.9248C18.1205 30.8253 18.0833 30.7455 18.0833 30.7455C18.0491 30.6152 17.9083 30.6153 17.9083 30.6153L17.9083 30.6084ZM26.9376 30.619L26.9363 30.6243C26.9363 30.6243 26.8166 30.6404 26.7831 30.7358C26.7831 30.7358 26.754 30.8662 26.8346 30.931L26.8332 30.9323C28.1384 31.9283 32.0951 34.8722 34.0012 35.4438C34.0012 35.4438 34.29 35.5483 34.774 35.567H35.0648C36.3419 35.5193 38.5666 34.8211 40.5883 31.1247L26.9376 30.619Z" fill="#2F3338"/>
</svg>
