<svg width="49" height="48" viewBox="0 0 49 48" fill="none" xmlns="http://www.w3.org/2000/svg">
<path d="M24.5435 2.59381C18.6344 2.59381 13.283 4.99063 9.40856 8.86805C5.53262 12.7366 3.13726 18.0909 3.13726 24.003C3.13726 29.9106 5.53262 35.2612 9.40856 39.1312C13.283 43.0035 18.6344 45.4047 24.5435 45.4047C30.454 45.4047 35.8083 43.0035 39.6769 39.1312C43.5514 35.2612 45.9416 29.9106 45.9416 24.003C45.9416 18.0909 43.5514 12.7366 39.6769 8.86805C35.8083 4.99063 30.454 2.59381 24.5435 2.59381ZM24.5435 7.62939e-06C37.7965 7.62939e-06 48.542 10.747 48.542 24.003C48.542 37.2545 37.7965 48 24.5435 48C11.2919 48 0.541992 37.2545 0.541992 24.003C0.541992 10.747 11.2919 7.62939e-06 24.5435 7.62939e-06Z" fill="#2F3338"/>
<path d="M13.1927 23.8075C13.1927 22.4088 12.2646 21.6143 10.9508 21.6143H10.1467V26.0022H10.9279C12.1496 26.0022 13.1927 25.3383 13.1927 23.8075ZM27.4962 25.3862L21.5724 30.0508L16.1583 25.7883C15.3771 27.665 13.4893 28.9686 11.3152 28.9686H6.68164V18.6465H11.3152C13.7445 18.6465 15.4951 20.1913 16.1568 21.8371L21.5724 17.579L23.5782 19.1577L18.6149 23.0587L19.5687 23.8053L24.5306 19.9065L26.5394 21.4808L21.5768 25.3862L22.5292 26.1343L27.4962 22.2281V18.6465H31.097V25.9557H34.6889V28.9811H27.4962V25.3862ZM39.2502 25.9572H42.8406V28.9811H35.6457V18.6465H39.2502V25.9572Z" fill="#2F3338"/>
</svg>
