<svg width="75" height="28" viewBox="0 0 75 28" fill="none" xmlns="http://www.w3.org/2000/svg">
<path d="M44.0606 14.6419C44.0606 15.7954 43.4044 16.7304 42.5949 16.7304C41.7841 16.7304 41.1279 15.7954 41.1279 14.6419C41.1279 13.489 41.7841 12.5547 42.5949 12.5547C43.4044 12.5547 44.0606 13.489 44.0606 14.6419Z" fill="#2F3338"/>
<path d="M2.28193 6.25781L1.74316 9.95339H4.37187L2.78751 21.7595H5.88839L7.50615 9.95339H10.0337L10.5399 6.25781H2.28193Z" fill="#2F3338"/>
<path d="M57.5252 6.25781L56.9863 9.95339H59.6151L58.0307 21.7595H61.1317L62.7493 9.95339H65.2769L65.7824 6.25781H57.5252Z" fill="#2F3338"/>
<path d="M17.4161 19.2637C17.5844 17.9976 17.7526 15.4654 16.8765 14.7814C17.416 14.2682 18.4271 13.9258 18.5621 10.846C18.6965 7.76684 17.281 6.36364 14.9888 6.22656L10.8091 6.26036L8.68652 21.7283H11.7529L12.4952 16.1839C12.4952 16.1839 13.5356 16.1876 13.5395 16.1839C14.3118 16.2381 14.5545 16.3613 14.409 18.085C14.2271 19.7603 14.2877 21.4423 14.482 21.7283C14.482 21.7415 16.1891 21.7283 17.7526 21.7283V20.7019C17.7526 20.7019 17.247 20.5298 17.416 19.2637H17.4161ZM15.5492 11.1903C15.4421 12.7259 14.0815 12.5445 14.0815 12.5445H13.0019L13.3902 9.77389C13.3902 9.77389 14.4937 9.78703 14.4937 9.77389C15.0638 9.79904 15.6581 9.62614 15.5492 11.1903Z" fill="#2F3338"/>
<path d="M32.1518 11.5592C32.4564 8.49193 31.1062 6.36364 28.814 6.22656L24.6348 6.26036L22.5117 21.7283H25.5781L26.2819 16.4593H27.5068C30.8296 16.4593 31.8119 14.982 32.1518 11.5592ZM29.0958 11.4604C28.9888 12.9967 27.8585 12.8146 27.8585 12.8146H26.7789L27.1795 9.78638C27.4625 9.78825 27.7613 9.81101 28.3196 9.81101C28.8897 9.8356 29.2048 9.89719 29.0958 11.4605" fill="#2F3338"/>
<path d="M41.1264 11.5592C41.4309 8.49193 40.0808 6.36364 37.7886 6.22656L33.6096 6.26036L31.4863 21.7283H34.5535L35.2565 16.4593H36.4816C39.8042 16.4593 40.7866 14.982 41.1264 11.5592ZM38.0704 11.4604C37.9632 12.9967 36.833 12.8146 36.833 12.8146H35.7536L36.1541 9.78638C36.4372 9.78825 36.736 9.81101 37.2942 9.81101C37.8645 9.8356 38.1795 9.89719 38.0704 11.4605" fill="#2F3338"/>
<path d="M23.352 6.23828H20.3443L18.1807 21.7029H21.1883L23.352 6.23828Z" fill="#2F3338"/>
<path d="M47.4938 17.9226L49.045 6.23438H45.9747L44.4241 17.9226L43.916 21.7481H46.9857H51.5217L52.0297 17.9226H47.4938Z" fill="#2F3338"/>
<path d="M57.1616 6.26953H54.0568L51.9648 21.7117H55.0697L57.1616 6.26953Z" fill="#2F3338"/>
<path d="M72.8561 9.93739L73.3512 6.23047H66.2139V6.27022H66.1067L64.5006 18.118H64.4673L63.9854 21.7249H71.4188L71.9009 18.118H67.6049L67.9585 15.5144H71.7559L72.238 11.9074H68.4462L68.7138 9.93739H72.8561Z" fill="#2F3338"/>
<path d="M74.1444 3.40561H58.6781C56.2933 1.31907 53.1643 0.0364366 49.7417 0.0211948C49.7195 0.0211948 49.6973 0 49.677 0C46.2321 0 43.0764 1.28331 40.68 3.40561H31.6596C29.312 1.38197 26.286 0.110557 23.0044 0.110557C19.5994 0.110557 16.475 1.34422 14.1039 3.40561H0.542969V4.53993H74.1447L74.1444 3.40561ZM43.0312 3.40561C44.9534 2.15541 47.25 1.42498 49.6767 1.42498C49.697 1.42498 49.721 1.44617 49.7413 1.44617C52.241 1.45931 54.5748 2.16202 56.5114 3.40561H43.0312Z" fill="#2F3338"/>
<path d="M74.1438 23.4453H0.541992V24.5796H14.1082C16.4786 26.6417 19.5986 27.8779 23.0035 27.8779C26.2871 27.8779 29.311 26.6046 31.6593 24.5796H40.6731C43.0703 26.7046 46.2294 27.9898 49.6761 27.9898C49.6965 27.9898 49.7205 28.0116 49.7408 27.9898C53.1751 27.9748 56.3132 26.6847 58.6999 24.5796H74.1435L74.1438 23.4453ZM49.7411 26.5648H49.6765C47.2506 26.5648 44.9558 25.8305 43.0341 24.5796H56.5377C54.5954 25.8385 52.2536 26.5523 49.7416 26.5648" fill="#2F3338"/>
</svg>
