<svg width="0" height="0" class="hidden">
  <symbol xmlns="http://www.w3.org/2000/svg" viewBox="0 0 25 24" id="cart">
    <path fill-rule="evenodd" clip-rule="evenodd"
          d="M22.99 4.682c0-.376-.333-.682-.744-.682H9.264c-.411 0-.744.306-.744.682v1.366c0 .376.333.682.744.682h12.982c.41 0 .744-.306.744-.682V4.682zm0 6.629c0-.376-.333-.682-.744-.682H9.264c-.411 0-.744.306-.744.682v1.366c0 .376.333.682.744.682h12.982c.41 0 .744-.306.744-.682V11.31zm0 6.641c0-.377-.333-.683-.744-.683H9.264c-.411 0-.744.306-.744.683v1.365c0 .377.333.683.744.683h12.982c.41 0 .744-.306.744-.683v-1.365zM6.16 4.682A.688.688 0 005.467 4H3.683a.688.688 0 00-.693.682v1.366c0 .376.31.682.693.682h1.784a.688.688 0 00.693-.682V4.682zm0 6.629a.688.688 0 00-.693-.682H3.683a.688.688 0 00-.693.682v1.366c0 .376.31.682.693.682h1.784a.688.688 0 00.693-.682V11.31zm0 6.641a.688.688 0 00-.693-.683H3.683a.688.688 0 00-.693.683v1.365c0 .377.31.683.693.683h1.784a.688.688 0 00.693-.683v-1.365z"></path>
  </symbol>
  <symbol xmlns="http://www.w3.org/2000/svg" viewBox="0 0 24 24" id="chevron-down">
    <path d="M18.878 6.44L12 13.316 5.123 6.439 3 8.562l9 9 9-9-2.122-2.123z"></path>
  </symbol>
  <symbol xmlns="http://www.w3.org/2000/svg" viewBox="0 0 25 24" id="close">
    <path d="M21.5 4.82L19.68 3l-7.18 7.18L5.32 3 3.5 4.82 10.68 12 3.5 19.18 5.32 21l7.18-7.18L19.68 21l1.82-1.82L14.32 12l7.18-7.18z"></path>
  </symbol>
  <symbol xmlns="http://www.w3.org/2000/svg" viewBox="0 0 25 24" id="filter">
    <path
      d="M22.18 11.245H10.71a2.829 2.829 0 00-5.482 0H3.706a.71.71 0 100 1.42h1.522a2.829 2.829 0 005.482 0h11.47a.71.71 0 100-1.42zm0-7.113h-2.233a2.829 2.829 0 00-5.483 0H3.706a.71.71 0 100 1.42h10.758a2.829 2.829 0 005.483 0h2.232a.71.71 0 100-1.42zm0 14.218h-3.654a2.829 2.829 0 00-5.483 0H3.706a.71.71 0 000 1.421h9.337a2.829 2.829 0 005.483 0h3.653a.71.71 0 000-1.42z"></path>
  </symbol>
  <symbol xmlns="http://www.w3.org/2000/svg" viewBox="0 0 20 18" id="search">
    <path
      d="M18.674 16l-4.715-4.716a7.108 7.108 0 001.347-4.126C15.306 3.2 12.106 0 8.148 0A7.152 7.152 0 00.99 7.158c0 3.958 3.2 7.158 7.158 7.158a7.109 7.109 0 004.127-1.348l4.715 4.716c.421.421 1.18.421 1.684 0 .506-.505.506-1.179 0-1.684zM8.148 12.632a5.463 5.463 0 01-5.474-5.474 5.463 5.463 0 015.474-5.474 5.463 5.463 0 015.474 5.474 5.463 5.463 0 01-5.474 5.474z"></path>
  </symbol>
  <symbol xmlns="http://www.w3.org/2000/svg" viewBox="0 0 24 24" id="chevron-right">
    <path d="M6.438 5.123L8.561 3l9 9-9 9-2.123-2.122L13.316 12 6.438 5.123z"></path>
  </symbol>
  <symbol xmlns="http://www.w3.org/2000/svg" viewBox="0 0 24 24" id="arrow-right">
    <path d="M3 12h17.5m0 0l-7-8m7 8l-7 8" stroke-width="2"></path>
  </symbol>
  <symbol xmlns="http://www.w3.org/2000/svg" viewBox="0 0 24 24" id="arrow-left">
    <path d="M21 12H3.5m0 0l7 8m-7-8l7-8" stroke-width="2"></path>
  </symbol>
  <symbol xmlns="http://www.w3.org/2000/svg" viewBox="0 0 24 25" id="map">
    <path fill-rule="evenodd" clip-rule="evenodd"
          d="M15.563 9.5a3.563 3.563 0 11-7.126 0 3.563 3.563 0 017.126 0zm-2.049 0a1.514 1.514 0 11-3.028 0 1.514 1.514 0 013.028 0z"
    ></path>
    <path fill-rule="evenodd" clip-rule="evenodd"
          d="M4.969 9.594c0-4.031 3.047-7.125 7.031-7.125 3.984 0 7.031 3.094 7.031 7.125 0 4.781-6.187 12-7.031 12.937-.844-.937-7.031-8.156-7.031-12.937zm2.062 0c0 2.437 2.672 6.844 4.969 9.703 2.297-2.906 4.969-7.266 4.969-9.703 0-2.905-2.157-5.063-4.969-5.063-2.813 0-4.969 2.158-4.969 5.063z"
    ></path>
  </symbol>
  <symbol xmlns="http://www.w3.org/2000/svg" viewBox="0 0 24 24" id="plus">
    <path fill-rule="evenodd" clip-rule="evenodd" d="M13 6h-2v5H6v2h5v5h2v-5h5v-2h-5V6z"></path>
  </symbol>
  <symbol xmlns="http://www.w3.org/2000/svg" viewBox="0 0 24 24" id="minus">
    <path d="M6 11h12v2H6z"></path>
  </symbol>
  <symbol xmlns="http://www.w3.org/2000/svg" viewBox="0 0 20 20" id="arrow-down">
    <path d="M9.791 2.708v14.583m0 0l6.667-5.833m-6.667 5.833l-6.666-5.833" stroke-width="2"></path>
  </symbol>
  <symbol xmlns="http://www.w3.org/2000/svg" viewBox="0 0 25 20" id="mail">
    <path
      d="M23.81.667H1.524c-.473 0-.857.418-.857.933v16.8c0 .516.384.934.857.934H23.81c.473 0 .857-.418.857-.934V1.6c0-.515-.384-.933-.857-.933zm-1.406 1.867l-9.737 8.155L2.93 2.534h19.474zm.549 14.933H2.38V4.429l9.764 8.178a.802.802 0 001.044 0l9.764-8.178v13.038z"></path>
  </symbol>
  <symbol xmlns="http://www.w3.org/2000/svg" viewBox="0 0 32 32" id="phone-icon">
    <path
      d="M24.576 19.88l-3.016-.343a2.364 2.364 0 00-1.948.676L17.427 22.4A17.868 17.868 0 019.6 14.572l2.197-2.197c.51-.51.76-1.223.677-1.947l-.345-2.993a2.377 2.377 0 00-2.363-2.102H7.713c-1.342 0-2.459 1.116-2.376 2.458.63 10.142 8.74 18.242 18.87 18.871 1.343.083 2.46-1.033 2.46-2.375v-2.055a2.354 2.354 0 00-2.09-2.351z"></path>
  </symbol>
  <symbol xmlns="http://www.w3.org/2000/svg" viewBox="0 0 24 24" id="chevron-left">
    <path
      d="M8.182 12.466l5.029 5.34a.596.596 0 00.878 0l.586-.622a.689.689 0 00.002-.932L10.69 12l3.986-4.252a.689.689 0 00-.002-.932l-.586-.623a.596.596 0 00-.878 0l-5.029 5.34a.689.689 0 000 .933z"></path>
  </symbol>
  <symbol xmlns="http://www.w3.org/2000/svg" viewBox="0 0 24 25" id="filter_new">
    <path
      d="M19 4.5h-4v1H2v2h13v1h4v-1h3v-2h-3v-1zm-17 7h3v-1h4v1h13v2H9v1H5v-1H2v-2zm15 6h5v2h-5v1h-4v-1H2v-2h11v-1h4v1z"></path>
  </symbol>
  <symbol xmlns="http://www.w3.org/2000/svg" viewBox="0 0 24 24" id="cart_new">
    <path d="M6.319 19.2c0-.99.81-1.8 1.8-1.8s1.8.81 1.8 1.8-.81 1.8-1.8 1.8-1.8-.81-1.8-1.8z"></path>
    <path fill-rule="evenodd" clip-rule="evenodd" d="M2.719 4.8V3h2.97l.545 1.8h15.047l-4.5 8.09-8.662.01.36 1.8h10.44v1.8H7.03A423.005 423.005 0 004.52 4.8h-1.8zm4.078 1.763l1.031 4.593h7.875l2.578-4.594H6.797z"></path>
    <path d="M15.319 19.2c0-.99.81-1.8 1.8-1.8s1.8.81 1.8 1.8-.81 1.8-1.8 1.8-1.8-.81-1.8-1.8z"></path>
  </symbol>
  <symbol xmlns="http://www.w3.org/2000/svg" viewBox="0 0 24 24" id="search_new">
    <path d="M15.857 14.314l-.763-.755a6.386 6.386 0 001.278-3.873A6.673 6.673 0 009.686 3 6.672 6.672 0 003 9.686a6.672 6.672 0 006.686 6.685c1.645 0 3.017-.621 3.874-1.277l.754.763L19.457 21 21 19.457l-5.143-5.143zm-6.171 0a4.61 4.61 0 01-4.629-4.628 4.61 4.61 0 014.629-4.629 4.61 4.61 0 014.628 4.629 4.61 4.61 0 01-4.628 4.628z"></path>
  </symbol>
</svg>
