<svg width="0" height="0" class="hidden">
  <symbol xmlns="http://www.w3.org/2000/svg" viewBox="0 0 25 24" id="cart">
    <path fill-rule="evenodd" clip-rule="evenodd"
          d="M22.99 4.682c0-.376-.333-.682-.744-.682H9.264c-.411 0-.744.306-.744.682v1.366c0 .376.333.682.744.682h12.982c.41 0 .744-.306.744-.682V4.682zm0 6.629c0-.376-.333-.682-.744-.682H9.264c-.411 0-.744.306-.744.682v1.366c0 .376.333.682.744.682h12.982c.41 0 .744-.306.744-.682V11.31zm0 6.641c0-.377-.333-.683-.744-.683H9.264c-.411 0-.744.306-.744.683v1.365c0 .377.333.683.744.683h12.982c.41 0 .744-.306.744-.683v-1.365zM6.16 4.682A.688.688 0 005.467 4H3.683a.688.688 0 00-.693.682v1.366c0 .376.31.682.693.682h1.784a.688.688 0 00.693-.682V4.682zm0 6.629a.688.688 0 00-.693-.682H3.683a.688.688 0 00-.693.682v1.366c0 .376.31.682.693.682h1.784a.688.688 0 00.693-.682V11.31zm0 6.641a.688.688 0 00-.693-.683H3.683a.688.688 0 00-.693.683v1.365c0 .377.31.683.693.683h1.784a.688.688 0 00.693-.683v-1.365z"></path>
  </symbol>
  <symbol xmlns="http://www.w3.org/2000/svg" viewBox="0 0 24 24" id="chevron-down">
    <path d="M18.878 6.44L12 13.316 5.123 6.439 3 8.562l9 9 9-9-2.122-2.123z"></path>
  </symbol>


  <symbol xmlns="http://www.w3.org/2000/svg" viewBox="0 0 24 24" id="close">
    <path d="M19.072 20.504l1.424-1.426-7.06-7.061 7.072-7.07-1.425-1.425-7.071 7.07-7.072-7.07-1.424 1.425 7.071 7.07-7.06 7.06 1.424 1.426 7.06-7.06 7.06 7.06z"></path>
  </symbol>

  <symbol xmlns="http://www.w3.org/2000/svg" viewBox="0 0 25 24" id="filter">
    <path
      d="M22.18 11.245H10.71a2.829 2.829 0 00-5.482 0H3.706a.71.71 0 100 1.42h1.522a2.829 2.829 0 005.482 0h11.47a.71.71 0 100-1.42zm0-7.113h-2.233a2.829 2.829 0 00-5.483 0H3.706a.71.71 0 100 1.42h10.758a2.829 2.829 0 005.483 0h2.232a.71.71 0 100-1.42zm0 14.218h-3.654a2.829 2.829 0 00-5.483 0H3.706a.71.71 0 000 1.421h9.337a2.829 2.829 0 005.483 0h3.653a.71.71 0 000-1.42z"></path>
  </symbol>


  <symbol xmlns="http://www.w3.org/2000/svg" viewBox="0 0 24 24" id="search">
    <path d="M15.857 14.314l-.763-.755a6.386 6.386 0 001.278-3.873A6.673 6.673 0 009.686 3 6.672 6.672 0 003 9.686a6.672 6.672 0 006.686 6.685c1.645 0 3.017-.621 3.874-1.277l.754.763L19.457 21 21 19.457l-5.143-5.143zm-6.171 0a4.61 4.61 0 01-4.629-4.628 4.61 4.61 0 014.629-4.629 4.61 4.61 0 014.628 4.629 4.61 4.61 0 01-4.628 4.628z" ></path>
  </symbol>


  <symbol xmlns="http://www.w3.org/2000/svg" viewBox="0 0 24 24" id="chevron-right">
    <path d="M6.438 5.123L8.561 3l9 9-9 9-2.123-2.122L13.316 12 6.438 5.123z"></path>
  </symbol>
  <symbol xmlns="http://www.w3.org/2000/svg" viewBox="0 0 24 24" id="arrow-right">
    <path d="M3 10.875h13.691l-6.283-6.283L12 3l9 9-9 9-1.592-1.592 6.283-6.283H3v-2.25z" ></path>
  </symbol>





  <symbol xmlns="http://www.w3.org/2000/svg" viewBox="0 0 24 24" id="arrow-left">
    <path d="M21 10.875H7.309l6.283-6.283L12 3l-9 9 9 9 1.592-1.592-6.283-6.283H21v-2.25z" ></path>
  </symbol>



  <symbol xmlns="http://www.w3.org/2000/svg" viewBox="0 0 24 24" id="map">
    <path fill-rule="evenodd" clip-rule="evenodd" d="M16.053 8.71c0 2.158-1.814 3.907-4.053 3.907s-4.053-1.75-4.053-3.907S9.76 4.804 12 4.804s4.053 1.749 4.053 3.906zm-1.777 0c0 1.161-1.02 2.193-2.276 2.193-1.255 0-2.276-.995-2.276-2.193S10.752 6.517 12 6.517c1.248 0 2.276 1.032 2.276 2.193z" ></path>
    <path fill-rule="evenodd" clip-rule="evenodd" d="M4 8.813C4 4.393 7.467 1 12 1c4.533 0 8 3.393 8 7.813 0 5.243-7.04 13.159-8 14.187-.96-1.028-8-8.944-8-14.187zm2.062 0c0 2.673 3.325 8.185 5.938 11.32 2.613-3.186 5.886-8.647 5.886-11.32 0-3.185-2.686-5.868-5.886-5.868S6.062 5.628 6.062 8.813z" ></path>
  </symbol>
  <symbol xmlns="http://www.w3.org/2000/svg" viewBox="0 0 24 24" id="plus">
    <path fill-rule="evenodd" clip-rule="evenodd" d="M13 6h-2v5H6v2h5v5h2v-5h5v-2h-5V6z"></path>
  </symbol>
  <symbol xmlns="http://www.w3.org/2000/svg" viewBox="0 0 24 24" id="minus">
    <path d="M6 11h12v2H6z"></path>
  </symbol>
  <symbol xmlns="http://www.w3.org/2000/svg" viewBox="0 0 24 24" id="arrow-down">
    <path d="M19.414 10.414l-6.289 6.277V3h-2.25v13.691l-6.278-6.288L3 12l9 9 9-9-1.586-1.586z"></path>
  </symbol>
  <symbol xmlns="http://www.w3.org/2000/svg" viewBox="0 0 24 24" id="mail">
    <path d="M2 4v15.014h20V4H2zm16 2l-5.97 5.266L6 6h12zm2 11H4V7l8 7 8-7v10z"></path>
  </symbol>




  <symbol xmlns="http://www.w3.org/2000/svg" viewBox="0 0 24 24" id="phone-icon">
    <path d="M15.75 14.766L13.2 17.3c-2.8-1.4-5.1-3.8-6.6-6.6l2.494-2.497L8.438 3H3.046S3 3.493 3 4c0 9.4 7.6 17 17 17 .6 0 1-.07 1-.07v-5.274l-5.25-.89z"></path>
  </symbol>

  <symbol xmlns="http://www.w3.org/2000/svg" viewBox="0 0 24 24" id="Ñhevron-left">
    <path d="M17.122 5.123L15 3l-9 9 9 9 2.122-2.122L10.245 12l6.877-6.877z"></path>
  </symbol>


  <symbol xmlns="http://www.w3.org/2000/svg" viewBox="0 0 24 24" id="filter_new">
    <path d="M19 3.5h-4V5H2v1h13v1.5h4V6h3V5h-3V3.5zM2 12h3v-1.5h4V12h13v1H9v1.5H5V13H2v-1zm15 7h5v1h-5v1.5h-4V20H2v-1h11v-1.5h4V19z"></path>
  </symbol>

  <symbol xmlns="http://www.w3.org/2000/svg" viewBox="0 0 24 24" id="cart_new">
    <path d="M6.319 19.2c0-.99.81-1.8 1.8-1.8s1.8.81 1.8 1.8-.81 1.8-1.8 1.8-1.8-.81-1.8-1.8z"></path>
    <path fill-rule="evenodd" clip-rule="evenodd"
          d="M2.719 4.8V3h2.97l.545 1.8h15.047l-4.5 8.09-8.662.01.36 1.8h10.44v1.8H7.03A423.005 423.005 0 004.52 4.8h-1.8zm4.078 1.763l1.031 4.593h7.875l2.578-4.594H6.797z"></path>
    <path d="M15.319 19.2c0-.99.81-1.8 1.8-1.8s1.8.81 1.8 1.8-.81 1.8-1.8 1.8-1.8-.81-1.8-1.8z"></path>
  </symbol>
  <symbol xmlns="http://www.w3.org/2000/svg" viewBox="0 0 24 24" id="search_new">
    <path d="M15.429 14.057l-.679-.671a5.676 5.676 0 001.136-3.443A5.931 5.931 0 009.943 4 5.931 5.931 0 004 9.943a5.931 5.931 0 005.943 5.943c1.463 0 2.682-.553 3.444-1.136l.67.678L18.63 20 20 18.629l-4.571-4.572zm-5.486 0a4.097 4.097 0 01-4.114-4.114 4.097 4.097 0 014.114-4.114 4.097 4.097 0 014.114 4.114 4.097 4.097 0 01-4.114 4.114z"></path>

  </symbol>
</svg>
