<svg width="98" height="20" viewBox="0 0 98 20" fill="none" xmlns="http://www.w3.org/2000/svg">
<path d="M0.923828 0V15.5271L4.79522 11.6293V3.88179H19.033V0H0.923828Z" fill="#2F3338"/>
<path d="M8.66602 7.74609H16.4728V11.6279H8.66602V7.74609Z" fill="#2F3338"/>
<path d="M0.923828 15.5117L4.79522 19.4095H19.033V15.5117H0.923828Z" fill="#2F3338"/>
<path d="M26.791 3.88281H35.1897V5.08585H28.1028V9.06387H34.4378V10.2669H28.1028V14.3412H35.2697V15.5442H26.791V3.88281Z" fill="#2F3338"/>
<path d="M40.2931 11.1487L37.0456 6.91406H38.5173L41.0609 10.2505L43.6045 6.91406H45.0283L41.7648 11.1006L45.1563 15.5117H43.6685L41.013 11.9989L38.3574 15.5117H36.9336L40.2931 11.1487Z" fill="#2F3338"/>
<path d="M47.6832 13.2345V8.03737H46.4834V6.91454H47.6832V4.33203H48.963V6.93058H51.6986V8.05341H48.963V13.0741C48.963 14.1167 49.5549 14.5017 50.4028 14.5017C50.8347 14.5017 51.2027 14.4215 51.6506 14.1969V15.3037C51.2027 15.5283 50.7067 15.6726 50.0988 15.6726C48.7231 15.6566 47.6832 14.9829 47.6832 13.2345Z" fill="#2F3338"/>
<path d="M53.9385 6.91432H55.2183V9.15998C55.8582 7.73238 57.09 6.68975 58.7217 6.76996V8.14943H58.6257C56.754 8.14943 55.2183 9.49683 55.2183 12.0954V15.528H53.9385V6.91432Z" fill="#2F3338"/>
<path d="M66.5763 10.6999C66.4323 9.12789 65.5364 7.79653 63.8407 7.79653C62.3529 7.79653 61.2331 9.01561 61.0571 10.6999H66.5763ZM64.0807 14.5977C65.2645 14.5977 66.0964 14.1165 66.7843 13.3946L67.5841 14.1165C66.7203 15.0789 65.6644 15.7365 64.0487 15.7365C61.681 15.7365 59.7773 13.924 59.7773 11.2452C59.7773 8.75896 61.5211 6.75391 63.8887 6.75391C66.4323 6.75391 67.8881 8.775 67.8881 11.3094C67.8881 11.4377 67.8881 11.55 67.8721 11.7585H61.0731C61.2491 13.555 62.5609 14.5977 64.0807 14.5977Z" fill="#2F3338"/>
<path d="M70.1277 6.91514H71.4075V8.35878C71.9674 7.50864 72.7353 6.72266 74.1751 6.72266C75.5668 6.72266 76.4627 7.47656 76.9266 8.43898C77.5345 7.4926 78.4464 6.72266 79.9342 6.72266C81.9019 6.72266 83.1177 8.05401 83.1177 10.1713V15.4968H81.8379V10.4761C81.8379 8.82395 81.006 7.87757 79.6142 7.87757C78.3184 7.87757 77.2306 8.84 77.2306 10.5403V15.4968H75.9668V10.428C75.9668 8.80791 75.1189 7.87757 73.7591 7.87757C72.3993 7.87757 71.3755 9.0004 71.3755 10.5884V15.4807H70.0957L70.1277 6.91514Z" fill="#2F3338"/>
<path d="M92.1245 10.6999C91.9805 9.12789 91.0847 7.79653 89.3889 7.79653C87.9012 7.79653 86.7813 9.01561 86.6054 10.6999C86.5894 10.6999 92.1245 10.6999 92.1245 10.6999ZM89.6129 14.5977C90.7967 14.5977 91.6286 14.1165 92.3165 13.3946L93.1164 14.1165C92.2525 15.0789 91.1967 15.7365 89.5809 15.7365C87.2293 15.7365 85.3096 13.924 85.3096 11.2452C85.3096 8.75896 87.0533 6.75391 89.4209 6.75391C91.9645 6.75391 93.4203 8.775 93.4203 11.3094C93.4203 11.4377 93.4203 11.55 93.4043 11.7585H86.6054C86.7653 13.555 88.1091 14.5977 89.6129 14.5977Z" fill="#2F3338"/>
<path d="M94.3319 5.99884H93.8359V5.74219H95.0837V5.99884H94.5878V7.29811H94.3159V5.99884H94.3319Z" fill="#2F3338"/>
<path d="M95.3881 5.74219H95.676L96.1559 6.48005L96.6359 5.74219H96.9238V7.29811H96.6519V6.17528L96.1559 6.91314H96.1399L95.644 6.19132V7.29811H95.3721L95.3881 5.74219Z" fill="#2F3338"/>
</svg>
