<svg width="87" height="36" viewBox="0 0 87 36" fill="none" xmlns="http://www.w3.org/2000/svg">
<path d="M28.1173 6.62845H2.48722V1.84361H28.1173V6.62845ZM29.9483 0H0.65625V8.4711H29.9483V0Z" fill="#2F3338"/>
<path d="M2.48722 22.4727H0.65625V14.0016H2.48722V17.3491H5.75859V14.0016H7.58956V22.4727H5.75859V18.9621H2.48722V22.4727Z" fill="#2F3338"/>
<path d="M10.3624 18.7598H12.5433C12.5026 18.1368 12.2473 17.7026 11.5335 17.7026C10.9949 17.7026 10.5237 17.9335 10.3624 18.7598ZM11.7488 22.6094C9.89112 22.6094 8.62598 21.43 8.62598 19.4927C8.62598 17.6079 9.86442 16.307 11.5068 16.307C13.2971 16.307 14.1856 17.5133 14.1856 19.3162V19.9941H10.3624C10.5782 20.9286 11.3048 21.1723 12.032 21.1723C12.6646 21.1723 13.1219 21.0373 13.6871 20.6843H13.755V22.0805C13.2704 22.4335 12.5833 22.6094 11.7488 22.6094Z" fill="#2F3338"/>
<path d="M18.964 18.9217L18.0216 22.4727H16.4198L14.5889 16.5087V16.4409H16.3392L17.335 20.0058L18.2775 16.4409H19.7046L20.6604 20.0058L21.6702 16.4409H23.3531V16.5087L21.5222 22.4727H19.9199L18.964 18.9217Z" fill="#2F3338"/>
<path d="M26.3275 22.6094C24.8738 22.6094 24.2812 22.0267 24.2812 20.658V14.0033H26.0582V20.5359C26.0582 20.9561 26.2196 21.1051 26.5695 21.1051C26.6908 21.1051 26.8661 21.0648 26.9734 21.0239H27.0007V22.5013C26.8527 22.555 26.5968 22.6094 26.3275 22.6094Z" fill="#2F3338"/>
<path d="M29.2354 18.7598H31.4163C31.3757 18.1368 31.1203 17.7026 30.4065 17.7026C29.8686 17.7026 29.3967 17.9335 29.2354 18.7598ZM30.6218 22.6094C28.7642 22.6094 27.499 21.43 27.499 19.4927C27.499 17.6079 28.7375 16.307 30.3798 16.307C32.1702 16.307 33.0587 17.5133 33.0587 19.3162V19.9941H29.2354C29.4507 20.9286 30.1779 21.1723 30.9045 21.1723C31.5376 21.1723 31.9949 21.0373 32.5607 20.6843H32.6281V22.0805C32.1435 22.4335 31.4569 22.6094 30.6218 22.6094Z" fill="#2F3338"/>
<path d="M40.355 16.4387H41.6742V17.8752H40.355V20.3286C40.355 20.8575 40.557 21.1018 41.0956 21.1018C41.2435 21.1018 41.4322 21.0877 41.6341 21.0199H41.6742V22.4296C41.4455 22.5114 41.0956 22.6055 40.5843 22.6055C39.1433 22.6055 38.578 21.9416 38.578 20.4098V17.8752H36.3031V20.3286C36.3031 20.8575 36.5051 21.1018 37.0431 21.1018C37.1916 21.1018 37.3802 21.0877 37.5822 21.0199H37.6222V22.4296C37.3936 22.5114 37.0431 22.6055 36.5324 22.6055C35.0914 22.6055 34.5261 21.9416 34.5261 20.4098V17.8752H33.6104V16.4387H34.5261V14.7854H36.3031V16.4387H38.578V14.7854H40.355V16.4387Z" fill="#2F3338"/>
<path d="M47.6614 18.1626C48.5911 18.1626 49.0345 17.6343 49.0345 16.8751C49.0345 16.0885 48.5911 15.5602 47.6614 15.5602H46.5036V18.1626H47.6614ZM50.8927 16.8751C50.8927 18.719 49.6676 19.7212 47.8094 19.7212H46.5036V22.4727H44.6738V14.0016H47.8094C49.6676 14.0016 50.8927 15.0044 50.8927 16.8751Z" fill="#2F3338"/>
<path d="M54.7967 20.5757V20.0609C54.5274 19.9124 54.1781 19.8581 53.8142 19.8581C53.2356 19.8581 52.8856 20.0743 52.8856 20.5623C52.8856 21.0643 53.2356 21.2811 53.7602 21.2811C54.2581 21.2811 54.6354 21.0234 54.7967 20.5757ZM54.8507 21.8772C54.4601 22.3518 53.8821 22.582 53.2617 22.582C52.0912 22.582 51.1348 21.8644 51.1348 20.5892C51.1348 19.4104 52.0912 18.6244 53.4637 18.6244C53.8943 18.6244 54.3394 18.6922 54.7967 18.8272V18.7196C54.7967 18.0686 54.4334 17.7846 53.4782 17.7846C52.8717 17.7846 52.2931 17.9599 51.7946 18.2451H51.7279V16.808C52.1852 16.5374 52.9936 16.3066 53.7869 16.3066C55.5912 16.3066 56.5737 17.1739 56.5737 18.6922V22.4733H54.8507V21.8772Z" fill="#2F3338"/>
<path d="M57.4746 19.4652C57.4746 17.5267 58.8349 16.307 60.6119 16.307C61.2445 16.307 61.8364 16.4426 62.281 16.7676V18.2993H62.2131C61.8225 18.0013 61.3652 17.8248 60.8406 17.8248C59.9521 17.8248 59.2789 18.4355 59.2789 19.4652C59.2789 20.495 59.9521 21.0916 60.8406 21.0916C61.3652 21.0916 61.8225 20.9152 62.2131 20.6165H62.281V22.1483C61.8364 22.4738 61.2445 22.6094 60.6119 22.6094C58.8349 22.6094 57.4746 21.4037 57.4746 19.4652Z" fill="#2F3338"/>
<path d="M65.1749 19.7353V22.4727H63.3984V14.0016H65.1749V18.8265L66.9658 16.4409H68.9848V16.5087L66.8311 19.2467L68.9848 22.4049V22.4727H66.9519L65.1749 19.7353Z" fill="#2F3338"/>
<path d="M72.969 20.5757V20.0609C72.7003 19.9124 72.3498 19.8581 71.9865 19.8581C71.4079 19.8581 71.0579 20.0743 71.0579 20.5623C71.0579 21.0643 71.4079 21.2811 71.9319 21.2811C72.431 21.2811 72.8076 21.0234 72.969 20.5757ZM73.0229 21.8772C72.6324 22.3518 72.0532 22.582 71.4346 22.582C70.2629 22.582 69.3076 21.8644 69.3076 20.5892C69.3076 19.4104 70.2629 18.6244 71.6371 18.6244C72.0677 18.6244 72.5111 18.6922 72.969 18.8272V18.7196C72.969 18.0686 72.6057 17.7846 71.6499 17.7846C71.0446 17.7846 70.4648 17.9599 69.9669 18.2451H69.8996V16.808C70.3574 16.5374 71.1653 16.3066 71.9592 16.3066C73.764 16.3066 74.7466 17.1739 74.7466 18.6922V22.4733H73.0229V21.8772Z" fill="#2F3338"/>
<path d="M77.7347 17.4169C78.0574 16.7524 78.5292 16.3731 79.1891 16.3731C79.4311 16.3731 79.6731 16.4275 79.7665 16.4818V18.1895H79.6998C79.4978 18.1077 79.2558 18.0539 78.9192 18.0539C78.3673 18.0539 77.9367 18.3794 77.7881 19.0024V22.4727H76.0117V16.4409H77.7347V17.4169Z" fill="#2F3338"/>
<path d="M84.4788 20.4272V18.4887C84.1828 18.055 83.7929 17.8657 83.3477 17.8657C82.5678 17.8657 82.0426 18.4355 82.0426 19.4652C82.0426 20.495 82.5678 21.0507 83.3477 21.0507C83.7929 21.0507 84.1828 20.8608 84.4788 20.4272ZM84.5322 21.8508C84.1556 22.3388 83.563 22.6094 82.7558 22.6094C81.2208 22.6094 80.2383 21.2003 80.2383 19.4652C80.2383 17.7301 81.2208 16.307 82.7558 16.307C83.5363 16.307 84.1016 16.5513 84.4788 16.9984V14.0033H86.2558V22.4738H84.5322V21.8508Z" fill="#2F3338"/>
<path d="M0.65625 25.2404H5.8526V26.2702H1.82737V28.8585H5.47538V29.862H1.82737V32.6812H5.8526V33.7109H0.65625V25.2404Z" fill="#2F3338"/>
<path d="M10.1461 27.6254C11.4786 27.6254 12.2191 28.5067 12.2191 29.9561V33.7109H11.1019V29.9835C11.1019 29.2109 10.7114 28.6552 9.86348 28.6552C9.16359 28.6552 8.57106 29.1028 8.36911 29.7393V33.7109H7.25195V27.7476H8.36911V28.6148C8.71905 28.0591 9.31158 27.6254 10.1461 27.6254Z" fill="#2F3338"/>
<path d="M15.2223 27.7465H16.7434V28.709H15.2223V31.921C15.2223 32.5983 15.5723 32.8292 16.2048 32.8292C16.3795 32.8292 16.5681 32.8023 16.7028 32.7479H16.7434V33.7099C16.5821 33.7777 16.3528 33.832 16.0435 33.832C14.6565 33.832 14.1052 33.1944 14.1052 32.0297V28.709H13.082V27.7465H14.1052V26.1616H15.2223V27.7465Z" fill="#2F3338"/>
<path d="M18.6138 30.1449H21.562C21.5219 29.2642 21.0907 28.5869 20.1755 28.5869C19.3276 28.5869 18.7752 29.2239 18.6138 30.1449ZM20.3775 33.832C18.6405 33.832 17.4561 32.6661 17.4561 30.796C17.4561 28.9253 18.5599 27.6244 20.1622 27.6244C21.7912 27.6244 22.6391 28.8037 22.6391 30.5517V31.0672H18.5732C18.6945 32.2734 19.4623 32.8561 20.5255 32.8561C21.1853 32.8561 21.656 32.707 22.1812 32.3137H22.2218V33.3037C21.7372 33.683 21.1041 33.832 20.3775 33.832Z" fill="#2F3338"/>
<path d="M25.0761 28.6692C25.3321 28.0322 25.8979 27.6529 26.5432 27.6529C26.7998 27.6529 27.0284 27.6932 27.1224 27.7476V28.8585H27.0824C26.9205 28.7779 26.6512 28.737 26.3819 28.737C25.7766 28.737 25.2647 29.1431 25.0761 29.8211V33.7109H23.959V27.7476H25.0761V28.6692Z" fill="#2F3338"/>
<path d="M30.7294 32.8144C31.8332 32.8144 32.4797 31.9336 32.4797 30.7268C32.4797 29.5346 31.8332 28.6405 30.7294 28.6405C30.1235 28.6405 29.5582 29.0063 29.2623 29.5884V31.8799C29.5582 32.4619 30.1235 32.8144 30.7294 32.8144ZM30.918 27.6236C32.681 27.6236 33.6235 29.0741 33.6235 30.7268C33.6235 32.3813 32.681 33.8312 30.918 33.8312C30.1908 33.8312 29.5716 33.4519 29.2623 33.0446V36H28.1445V27.7457H29.2623V28.4231C29.5716 28.0029 30.1908 27.6236 30.918 27.6236Z" fill="#2F3338"/>
<path d="M36.0605 28.6692C36.3159 28.0322 36.8817 27.6529 37.5276 27.6529C37.7835 27.6529 38.0122 27.6932 38.1062 27.7476V28.8585H38.0662C37.9048 28.7779 37.6356 28.737 37.3663 28.737C36.7604 28.737 36.2491 29.1431 36.0605 29.8211V33.7109H34.9434V27.7476H36.0605V28.6692Z" fill="#2F3338"/>
<path d="M39.7216 25.3326C40.1122 25.3326 40.4349 25.6441 40.4349 26.0374C40.4349 26.4307 40.1122 26.7422 39.7216 26.7422C39.345 26.7422 39.0078 26.4307 39.0078 26.0374C39.0078 25.6441 39.345 25.3326 39.7216 25.3326Z" fill="#2F3338"/>
<path d="M39.1699 33.7095H40.2877V27.7461H39.1699V33.7095Z" fill="#2F3338"/>
<path d="M44.2721 30.2268C45.1199 30.4974 46.0618 30.8498 46.0618 31.9882C46.0618 33.2085 45.066 33.832 43.7875 33.832C43.0063 33.832 42.2258 33.6421 41.7812 33.2897V32.219H41.8352C42.3337 32.6796 43.0737 32.8829 43.7735 32.8829C44.4061 32.8829 44.9719 32.6387 44.9719 32.1238C44.9719 31.5955 44.5013 31.4733 43.5716 31.1618C42.7371 30.8907 41.8085 30.5786 41.8085 29.4542C41.8085 28.3017 42.7504 27.6244 43.9488 27.6244C44.6487 27.6244 45.2679 27.7734 45.7658 28.1123V29.197H45.7258C45.2418 28.8037 44.6754 28.5729 43.9755 28.5729C43.2756 28.5729 42.8851 28.8849 42.8851 29.3051C42.8851 29.7797 43.3157 29.9147 44.2721 30.2268Z" fill="#2F3338"/>
<path d="M48.19 30.1449H51.1375C51.0975 29.2642 50.6669 28.5869 49.7511 28.5869C48.9032 28.5869 48.3513 29.2239 48.19 30.1449ZM49.9531 33.832C48.2167 33.832 47.0322 32.6661 47.0322 30.796C47.0322 28.9253 48.136 27.6244 49.7378 27.6244C51.3673 27.6244 52.2146 28.8037 52.2146 30.5517V31.0672H48.1494C48.2707 32.2734 49.0379 32.8561 50.1011 32.8561C50.7615 32.8561 51.2321 32.707 51.7568 32.3137H51.7974V33.3037C51.3134 33.683 50.6802 33.832 49.9531 33.832Z" fill="#2F3338"/>
</svg>
