<svg width="56" height="48" viewBox="0 0 56 48" fill="none" xmlns="http://www.w3.org/2000/svg">
<g clip-path="url(#clip0)">
<path d="M35.4122 46H54.6949V16.0915H44.0153M35.4122 46H1V29.0327H13.1629M35.4122 46V29.0327H20.5794M44.0153 16.0915V2H13.1629V29.0327M44.0153 16.0915H20.5794V29.0327M13.1629 29.0327H20.5794M17.3161 7.75163H25.6225M24.7326 21.8431H33.039M41.0487 21.8431H44.6086M46.9818 21.8431H50.5417M46.9818 33.0588H50.5417M41.0487 27.3072H44.6086M46.9818 27.3072H50.5417M21.766 34.7843H25.3259M27.6991 34.7843H31.259M21.766 40.2484H25.3259M27.6991 40.2484H31.259M41.0487 33.0588H44.6086M30.369 7.75163H33.9289M36.3022 7.75163H39.8621M5.1532 34.7843H13.4596" stroke="#F82249" stroke-width="3"/>
</g>
<defs>
<clipPath id="clip0">
<rect width="56" height="48" fill="white"/>
</clipPath>
</defs>
</svg>
