<svg width="320" height="282" viewBox="0 0 320 282" fill="none" xmlns="http://www.w3.org/2000/svg">
  <path
    d="M2.46823 23.722L47.8863 2L107 29.9973L106.472 65.4284L101.849 67.6489V69.6762L107 72.1863L106.298 191.899L101.849 194.313L101.615 197.402L60.6455 217L6.91639 191.802L7.50167 188.423L2.35117 186.01V65.718L7.21878 63.4975L7.50167 61.7598L2 59.0566L2.46823 23.722Z"
    fill="#2F3338"/>
  <path
    d="M2.46823 23.722L47.8863 2L107 29.9973M2.46823 23.722L61.3478 51.9124M2.46823 23.722L2 59.0566L7.50167 61.7598M107 29.9973L61.3478 51.9124M107 29.9973L106.472 65.4284L101.849 67.6489M61.3478 51.9124L60.9967 87.247M60.9967 87.247L61.4649 93.9084L60.9967 213.621M60.9967 87.247L101.849 67.6489M60.9967 87.247L7.50167 61.7598M7.50167 61.7598L7.21878 63.4975L2.35117 65.718M2.35117 65.718V186.01L7.50167 188.423M2.35117 65.718L61.4641 94.1176L107 72.1863M60.9967 213.621L60.6455 217M60.9967 213.621L7.50167 188.423M60.9967 213.621L101.849 194.313M107 72.1863L106.298 191.899L101.849 194.313M107 72.1863L101.849 69.6762V67.6489M7.50167 188.423L6.91639 191.802L60.6455 217M60.6455 217L101.615 197.402L101.849 194.313M8.32107 111.479V153.475L55.8462 175.776L56.4314 134.36L8.32107 111.479ZM8.32107 159.557L56.4314 181.762V205.801L8.32107 183.693V159.557ZM8.32107 72.8621V101.246L56.4314 124.802V96.2254L8.32107 72.8621Z"
    stroke="#6F7985" stroke-width="2"/>
  <path
    d="M106.473 55.722L152.323 34L212 61.9973L211.467 97.4284L206.8 99.6489V101.676L212 104.186L211.291 223.899L206.8 226.313L206.564 229.402L165.204 249L110.963 223.802L111.554 220.423L106.355 218.01V97.718L111 95.5L111.554 93.7598L106 91.0566L106.473 55.722Z"
    fill="#2F3338"/>
  <path
    d="M106.473 55.722L152.323 34L212 61.9973M106.473 55.722L165.913 83.9124M106.473 55.722L106 91.0566L111.554 93.7598M212 61.9973L165.913 83.9124M212 61.9973L211.467 97.4284L206.8 99.6489M165.913 83.9124L165.559 119.247M165.559 119.247L166.031 125.908L165.559 245.621M165.559 119.247L206.8 99.6489M165.559 119.247L111.554 93.7598M111.554 93.7598L111 95.5L106.355 97.718M106.355 97.718V218.01L111.554 220.423M106.355 97.718L166.03 126.118L212 104.186M165.559 245.621L165.204 249M165.559 245.621L111.554 220.423M165.559 245.621L206.8 226.313M212 104.186L211.291 223.899L206.8 226.313M212 104.186L206.8 101.676V99.6489M111.554 220.423L110.963 223.802L165.204 249M165.204 249L206.564 229.402L206.8 226.313M112.381 143.479V185.475L160.359 207.776L160.95 166.36L112.381 143.479ZM112.381 191.557L160.95 213.762V237.801L112.381 215.693V191.557ZM112.381 104.862V133.246L160.95 156.802V128.225L112.381 104.862Z"
    stroke="#6F7985" stroke-width="2"/>
  <path
    d="M212.473 87.621L258.323 66L318 93.8671L317.467 129.133L312.8 131.344V133.361L318 135.86L317.291 255.016L312.8 257.418L312.564 260.493L271.204 280L216.963 254.92L217.554 251.556L212.355 249.154V129.422L217.268 127.211L217.554 125.482L212 122.791L212.473 87.621Z"
    fill="#2F3338"/>
  <path
    d="M212.473 87.621L258.323 66L318 93.8671M212.473 87.621L271.913 115.68M212.473 87.621L212 122.791L217.554 125.482M318 93.8671L271.913 115.68M318 93.8671L317.467 129.133L312.8 131.344M271.913 115.68L271.559 150.85M271.559 150.85L272.031 157.481L271.559 276.637M271.559 150.85L312.8 131.344M271.559 150.85L217.554 125.482M217.554 125.482L217.268 127.211L212.355 129.422M212.355 129.422V249.154L217.554 251.556M212.355 129.422L272.03 157.689L318 135.86M271.559 276.637L271.204 280M271.559 276.637L217.554 251.556M271.559 276.637L312.8 257.418M318 135.86L317.291 255.016L312.8 257.418M318 135.86L312.8 133.361V131.344M217.554 251.556L216.963 254.92L271.204 280M271.204 280L312.564 260.493L312.8 257.418M218.381 174.97V216.771L266.359 238.968L266.95 197.744L218.381 174.97ZM218.381 222.824L266.95 244.926V268.853L218.381 246.848V222.824ZM218.381 136.533V164.784L266.95 188.231V159.787L218.381 136.533Z"
    stroke="#6F7985" stroke-width="2"/>
</svg>
