<svg width="52" height="49" viewBox="0 0 52 49" fill="none" xmlns="http://www.w3.org/2000/svg">
<path d="M20.1631 8.02018L22.0281 8.93685L23.8931 11.2285L25.758 15.8118H26.6905L28.5555 11.2285L30.4205 8.93685L32.2855 8.02018L31.8192 5.72852L33.218 5.27018V2.97852H34.6167V5.27018L36.0154 5.72852L35.5492 8.02018L37.4142 9.39518V11.2285L35.5492 10.7702L36.4817 12.6035L34.6167 13.0618L33.218 12.1452L31.8192 13.5202L30.8867 15.8118L32.2855 19.9368L34.1505 21.3118L36.0154 19.9368L35.5492 17.6452L36.9479 15.8118L39.2792 13.5202L41.6104 10.7702L46.2729 2.97852L47.2054 7.56185L43.0091 14.4368L49.5366 8.93685L49.0703 12.6035L42.5429 18.5618L50.4691 15.8118L49.5366 19.4785L43.0091 21.3118L49.0703 22.6868L46.2729 24.5202L41.6104 23.6035L41.1442 24.0618L44.4079 26.8118L40.6779 27.7285L38.8129 25.4368L37.4142 26.3535L38.3467 28.1868L36.9479 28.6452L34.6167 26.8118L33.218 27.2702L33.6842 29.5618L36.0154 30.9368L36.9479 33.6868L36.0154 35.0618L38.3467 36.4368L39.7454 35.5202L42.0766 36.4368L41.6104 38.2702L39.7454 39.6452L38.3467 39.1868L37.4142 38.2702L34.6167 36.8952L32.2855 35.9785V34.6035L31.8192 32.7702L29.9543 32.3118L28.0893 34.6035L33.218 40.1035L32.2855 42.8535H30.8867L29.488 42.3952L27.623 39.1868L28.0893 45.289L26.6905 46.5202H25.758L24.3593 45.289L24.8255 39.1868L22.9606 42.3952L21.5618 42.8535H20.1631L19.2306 40.1035L24.3593 34.6035L22.4943 32.3118L20.6293 32.7702L20.1631 34.6035V35.9785L17.8319 36.8952L15.0344 38.2702L14.1019 39.1868L12.7031 39.6452L10.8382 38.2702L10.3719 36.4368L12.7031 35.5202L14.1019 36.4368L16.4331 35.0618L15.5006 33.6868L16.4331 30.9368L18.7643 29.5618L19.2306 27.2702L17.8319 26.8118L15.5006 28.6452L14.1019 28.1868L15.0344 26.3535L13.6356 25.4368L11.7707 27.7285L8.04069 26.8118L11.3044 24.0618L10.8382 23.6035L6.17571 24.5202L3.37823 22.6868L9.43943 21.3118L2.91198 19.4785L1.97949 15.8118L9.83907 18.5618L3.37823 12.6035L2.91198 8.93685L9.43943 14.4368L5.24321 7.56185L6.17571 2.97852L10.8382 10.7702L13.6356 13.9785L15.5006 15.8118L16.8994 17.6452L16.4331 19.9368L18.2981 21.3118L20.1631 19.9368L21.5618 15.8118L20.6293 13.5202L19.2306 12.1452L17.8319 13.0618L15.9669 12.6035L16.4331 11.2285H15.0344V9.39518L16.8994 8.02018L16.4331 5.72852L17.8319 5.27018V3.43685H19.2306V5.27018L20.6293 5.72852L20.1631 8.02018Z" stroke="#F82249" stroke-width="2"/>
</svg>
