<svg width="150" height="26" viewBox="0 0 150 26" fill="none" xmlns="http://www.w3.org/2000/svg">
<g clip-path="url(#clip0)">
<path d="M20.3286 20.1875H7.43359V24.0525H20.3286V20.1875Z" fill="#2F3338"/>
<path d="M35.1977 20.1875H22.3027V24.0525H35.1977V20.1875Z" fill="#2F3338"/>
<path d="M12.895 9.12891H0V14.2639H12.895V9.12891Z" fill="#2F3338"/>
<path d="M27.7632 9.12891H14.8682V14.2639H27.7632V9.12891Z" fill="#2F3338"/>
<path d="M42.6684 9.12891H29.7734V14.2639H42.6684V9.12891Z" fill="#2F3338"/>
<path d="M20.3286 16.5977H7.43359V17.8627H20.3286V16.5977Z" fill="#2F3338"/>
<path d="M35.1977 16.5977H22.3027V17.8627H35.1977V16.5977Z" fill="#2F3338"/>
<path d="M20.3657 5.53906H7.4707V6.80406H20.3657V5.53906Z" fill="#2F3338"/>
<path d="M35.1977 5.53906H22.3027V6.80406H35.1977V5.53906Z" fill="#2F3338"/>
<path d="M20.3657 1.94922H7.4707V3.21422H20.3657V1.94922Z" fill="#2F3338"/>
<path d="M35.1977 1.94922H22.3027V3.21422H35.1977V1.94922Z" fill="#2F3338"/>
<path d="M48.3027 19.1751V6.78516H50.0678V16.656L56.0486 6.78516H57.7965V19.1751H56.0486V9.3214L50.0678 19.1751H48.3027Z" fill="#2F3338"/>
<path d="M59.7656 19.1751V6.78516H61.5307V12.0119H67.4258V6.78516H69.1737V19.1751H67.4258V13.3314H61.5307V19.1751H59.7656Z" fill="#2F3338"/>
<path d="M76.1837 19.8397V17.7496H76.0111C74.6689 17.7496 73.4992 17.2703 72.5214 16.3307C71.5435 15.372 71.0449 14.2407 71.0449 12.956C71.0449 11.5755 71.5435 10.4059 72.5214 9.4663C73.4992 8.54593 74.7264 8.06657 76.1837 8.06657V5.97656H78.0436V8.06657C79.5008 8.06657 80.7088 8.54593 81.7059 9.4663C82.6838 10.4059 83.1823 11.5755 83.1823 12.956C83.1823 14.2599 82.6838 15.372 81.7059 16.3307C80.7088 17.2703 79.5392 17.7496 78.197 17.7496H78.0436V19.8397H76.1837ZM76.1837 9.50465C75.1291 9.58135 74.3429 9.90732 73.806 10.4825C73.2883 11.077 73.0199 11.9206 73.0199 13.0136C73.0199 13.9723 73.3075 14.7584 73.9019 15.3912C74.4963 16.0048 75.2633 16.3116 76.1837 16.3116V9.50465ZM78.0436 9.50465V16.3116C78.964 16.3116 79.7309 16.0048 80.3253 15.3912C80.9197 14.7584 81.2265 13.9723 81.2265 13.0136C81.2265 11.9206 80.9581 11.077 80.4212 10.4825C79.8843 9.90732 79.0982 9.58135 78.0436 9.50465Z" fill="#2F3338"/>
<path d="M85.1445 19.1751V6.78516H88.5205C90.0114 6.78516 91.091 7.04221 91.7422 7.55631C92.3934 8.05328 92.719 8.87585 92.719 10.0411C92.719 11.3607 92.2734 12.3889 91.3823 13.1258C90.4912 13.8798 89.2574 14.2568 87.6636 14.2568H86.8925V19.1751H85.1445ZM86.8925 12.9201H87.5951C88.6404 12.9201 89.4459 12.6802 90.0114 12.2004C90.594 11.7206 90.8682 11.0522 90.8682 10.1782C90.8682 9.42423 90.6454 8.89298 90.1999 8.58452C89.7543 8.25892 89.0175 8.10469 87.9721 8.10469H86.8925V12.9201Z" fill="#2F3338"/>
<path d="M100.38 14.4453L98.2722 9.09863L96.1644 14.4453H100.38ZM102.248 19.1751L100.894 15.7477H95.6503L94.2965 19.1751H92.6514L97.5696 6.78516H99.3004L104.15 19.1751H102.248Z" fill="#2F3338"/>
<path d="M105.139 21.6599V17.8555H106.068C107.015 16.3475 107.667 14.8566 108.026 13.4C108.401 11.9433 108.58 10.1268 108.58 7.93332V6.78516H114.861V17.8555H116.492V21.6599H114.861V19.1751H106.77V21.6599H105.139ZM107.749 17.8555H113.197V8.08755H110.097V8.27606C110.097 10.0754 109.902 11.772 109.51 13.3657C109.119 14.9594 108.532 16.4674 107.749 17.8555Z" fill="#2F3338"/>
<path d="M125.172 14.4453L123.064 9.09863L120.956 14.4453H125.172ZM127.04 19.1751L125.686 15.7477H120.442L119.088 19.1751H117.443L122.362 6.78516H124.092L128.942 19.1751H127.04Z" fill="#2F3338"/>
<path d="M132.854 19.1751V8.10469H128.467V6.78516H139.006V8.10469H134.619V19.1751H132.854Z" fill="#2F3338"/>
<path d="M146.23 14.4453L144.122 9.09863L142.014 14.4453H146.23ZM148.098 19.1751L146.744 15.7477H141.5L140.146 19.1751H138.501L143.419 6.78516H145.15L150 19.1751H148.098Z" fill="#2F3338"/>
</g>
<defs>
<clipPath id="clip0">
<rect width="150" height="24.1023" fill="white" transform="translate(0 0.949219)"/>
</clipPath>
</defs>
</svg>
