<svg width="451" height="249" viewBox="0 0 451 249" fill="none" xmlns="http://www.w3.org/2000/svg">
<path d="M74.4731 128.419L77.289 136.886L68.8382 148.646L67.3514 161.141L77.289 183.455L63.2055 190.04H52.4073L40.2007 182.044L37.3838 190.04L46.304 195.378L48.6504 206.504L61.7118 215.039L68.8382 238.661L77.289 239.901L84.5359 221.589L91.5418 203.816L115.787 199.448L141.408 219.204L154.285 203.816L178.228 205.093L187.152 223.085L199.516 217.323L207.806 236.609L219.074 238.122L234.567 247.898L252.877 239.901L269.309 243.664L275.412 231.905L291.374 236.609L300.484 235.197L311.562 238.122L332.22 228.142L345.835 223.085L343.957 203.816L356.453 195.378L374.943 208.385L389.913 211.669L399.803 203.816L405.459 217.323L399.803 228.142L412.991 231.905L418.605 199.448L399.803 166.991L379.61 169.343V139.337L389.913 122.804L402.642 115.719L396.094 94.6978L407.338 88.9066L417.112 122.804L440.202 136.886L445.836 122.804L435.507 103.489L418.605 85.1435L421.713 66.7984V44.2968L402.642 40.9655L409.216 16.4668H399.803L388.089 31.8724L374.943 37.6343L369.719 65.3517H356.453L348.183 74.795L332.22 77.6173L320.953 94.6978L306.399 92.6697L297.009 98.7848L276.352 103.489L279.638 88.9066L272.127 77.6173L246.305 62.5649L243.018 71.0319L254.756 79.9692V91.2586L238.324 98.7848L222.361 113.837L207.806 108.193L197.478 132.182L181.795 122.804L167.431 115.719L154.285 110.074L141.408 115.719H126.586L132.689 102.551L143.957 98.7848L138.323 87.0251L126.586 91.2586L118.605 98.7848L109.215 111.485L91.5418 115.719L74.4731 128.419Z" fill="#E9EBED"/>
<path d="M187.152 94.6978L178.228 102.551L181.795 111.485L189.967 98.7848L212.032 92.6697V87.0251C206.712 87.0251 195.788 87.4014 194.661 88.9066C193.535 90.4119 189.186 93.3946 187.152 94.6978Z" fill="#E9EBED"/>
<path d="M412.991 169.343C411.879 169.343 402.813 162.13 398.418 158.524L412.991 179.692L430.813 197.566L422.831 179.692L426.118 176.399C422.205 174.047 414.103 169.343 412.991 169.343Z" fill="#E9EBED"/>
<path d="M313.911 68.2095L306.399 74.795L311.563 78.5581L319.545 74.795L323.3 68.6799L324.239 66.328L320.484 64.4464L313.911 68.2095Z" fill="#E9EBED"/>
<path d="M440.453 132.827L442.8 137.061M445.617 145.057V153.524M445.617 160.58V155.876M445.617 166.225L442.8 173.751M442.8 176.573V181.911M71.9058 123.419L69.09 114.952L86.1586 102.252L103.832 98.0185L113.222 85.318L121.203 77.7918L132.94 73.5583L138.574 85.318L127.306 89.0842L121.203 102.252H136.025L148.901 96.6073L162.048 102.252L176.412 109.337L192.095 118.716L202.423 94.7258L216.978 100.37L232.94 85.318L249.372 77.7918V66.5024L237.635 57.5651L240.922 49.0981L266.743 64.1505L274.255 75.4398L270.969 90.0219L291.626 85.318L301.016 79.2029L315.57 81.231L326.836 64.1505L342.8 61.3282L351.07 51.8849H364.336L369.56 24.1675L382.706 18.4056L394.42 3H403.833L397.259 27.4988L416.33 30.83V53.3316L413.222 71.6767L430.124 90.0219L440.453 109.337L434.819 123.419L411.729 109.337L401.955 75.4398L390.711 81.231L397.259 102.252L384.529 109.337L374.227 125.87V155.876L394.42 153.524L413.222 185.981L407.608 218.438L394.42 214.675L400.076 203.856L394.42 190.349L384.529 198.202L369.56 194.918L351.07 181.911L338.573 190.349L340.451 209.618L326.836 214.675L306.179 224.655L295.101 221.731L285.991 223.142L270.029 218.438L263.925 230.198L247.493 226.435L229.183 234.431L213.69 224.655L202.423 223.142L194.133 203.856L181.769 209.618L172.845 191.626L148.901 190.349L136.025 205.737L110.404 185.981L86.1586 190.349L79.1527 208.122L71.9058 226.435L63.4551 225.194L56.3286 201.573L43.2672 193.037L40.9208 181.911L32.0006 176.573L34.8175 168.577L47.0241 176.573H57.8223L71.9058 169.988L61.9682 147.675L63.4551 135.179L71.9058 123.419ZM172.845 89.0842L181.769 81.231C183.803 79.9278 188.151 76.9451 189.278 75.4398C190.405 73.9346 201.328 73.5583 206.649 73.5583V79.2029L184.583 85.318L176.412 98.0185L172.845 89.0842ZM393.035 145.057C397.429 148.664 406.496 155.876 407.608 155.876C408.72 155.876 416.822 160.58 420.735 162.932L417.448 166.225L425.429 184.1L407.608 166.225L393.035 145.057ZM301.016 61.3282L308.528 54.7427L315.1 50.9796L318.856 52.8612L317.917 55.2131L314.161 61.3282L306.18 65.0913L301.016 61.3282ZM24.7765 73.5583L34.8175 75.4398L33.8066 85.318L17.1008 81.231L24.7765 73.5583ZM28.84 166.246L18.0038 158.559L7.61914 157.654V172.577L17.1008 168.507L22.9704 169.988L28.84 166.246Z" stroke="#C7CBD1" stroke-width="6"/>
<line x1="123.171" y1="149.53" x2="222.171" y2="185.53" stroke="#F82249"/>
<line x1="122.967" y1="148.501" x2="330.976" y2="134.634" stroke="#F82249"/>
<line x1="123.099" y1="148.51" x2="306.099" y2="185.51" stroke="#F82249"/>
<line x1="119.342" y1="150.365" x2="71.342" y2="195.365" stroke="#F82249"/>
<line x1="119.524" y1="142.153" x2="110.524" y2="114.153" stroke="#F82249"/>
<line x1="119.831" y1="146.471" x2="80.8311" y2="132.471" stroke="#F82249"/>
<line x1="122.084" y1="148.493" x2="81.0842" y2="155.493" stroke="#F82249"/>
<line x1="123.488" y1="147.893" x2="132.488" y2="188.893" stroke="#F82249"/>
<line x1="122.03" y1="148.501" x2="371.037" y2="163.382" stroke="#F82249"/>
<line x1="122.854" y1="147.522" x2="394.854" y2="64.5218" stroke="#F82249"/>
<rect x="386" y="56" width="14" height="14" fill="#F82249"/>
<rect x="116" y="141" width="14" height="14" fill="#F82249"/>
<rect x="102" y="105" width="14" height="14" fill="#F82249"/>
<rect x="76" y="125" width="14" height="14" fill="#F82249"/>
<rect x="75" y="150" width="14" height="14" fill="#F82249"/>
<rect x="64" y="186" width="14" height="14" fill="#F82249"/>
<rect x="215" y="177" width="14" height="14" fill="#F82249"/>
<rect x="116" y="141" width="14" height="14" fill="#F82249"/>
<rect x="125" y="179" width="14" height="14" fill="#F82249"/>
<rect x="164" y="146" width="14" height="14" fill="#F82249"/>
<rect x="366" y="156" width="14" height="14" fill="#F82249"/>
<rect x="329" y="126" width="14" height="14" fill="#F82249"/>
<rect x="297" y="179" width="14" height="14" fill="#F82249"/>
</svg>
