<svg width="110" height="102" viewBox="0 0 110 102" fill="none" xmlns="http://www.w3.org/2000/svg">
  <path
    d="M49.6307 17.2934L54.2214 19.5513L58.8122 25.1961L63.4029 36.4855H65.6983L70.289 25.1961L74.8797 19.5513L79.4705 17.2934L78.3228 11.6487L81.7658 10.5197V4.875H85.2089V10.5197L88.6519 11.6487L87.5042 17.2934L92.095 20.6803V25.1961L87.5042 24.0671L89.7996 28.5829L85.2089 29.7118L81.7658 27.4539L78.3228 30.8408L76.0274 36.4855L79.4705 46.646L84.0612 50.0329L88.6519 46.646L87.5042 41.0013L90.9473 36.4855L96.6857 30.8408L102.424 24.0671L113.901 4.875L116.196 16.1645L105.867 33.0987L121.935 19.5513L120.787 28.5829L104.719 43.2592L124.23 36.4855L121.935 45.5171L105.867 50.0329L120.787 53.4197L113.901 57.9355L102.424 55.6776L101.276 56.8066L109.31 63.5803L100.129 65.8382L95.538 60.1934L92.095 62.4513L94.3903 66.9671L90.9473 68.096L85.2089 63.5803L81.7658 64.7092L82.9135 70.3539L88.6519 73.7408L90.9473 80.5145L88.6519 83.9013L94.3903 87.2881L97.8334 85.0303L103.572 87.2881L102.424 91.8039L97.8334 95.1908L94.3903 94.0618L92.095 91.8039L85.2089 88.4171L79.4705 86.1592V82.7724L78.3228 78.2566L73.732 77.1276L69.1413 82.7724L81.7658 96.3197L79.4705 103.093H76.0274L72.5844 101.964L67.9936 94.0618L69.1413 109.092L65.6983 112.125H63.4029L59.9599 109.092L61.1075 94.0618L56.5168 101.964L53.0738 103.093H49.6307L47.3353 96.3197L59.9599 82.7724L55.3691 77.1276L50.7784 78.2566L49.6307 82.7724V86.1592L43.8923 88.4171L37.0062 91.8039L34.7108 94.0618L31.2678 95.1908L26.6771 91.8039L25.5294 87.2881L31.2678 85.0303L34.7108 87.2881L40.4492 83.9013L38.1539 80.5145L40.4492 73.7408L46.1877 70.3539L47.3353 64.7092L43.8923 63.5803L38.1539 68.096L34.7108 66.9671L37.0062 62.4513L33.5632 60.1934L28.9724 65.8382L19.791 63.5803L27.8247 56.8066L26.6771 55.6776L15.2002 57.9355L8.31414 53.4197L23.234 50.0329L7.16646 45.5171L4.87109 36.4855L24.2177 43.2592L8.31414 28.5829L7.16646 19.5513L23.234 33.0987L12.9049 16.1645L15.2002 4.875L26.6771 24.0671L33.5632 31.9697L38.1539 36.4855L41.5969 41.0013L40.4492 46.646L45.04 50.0329L49.6307 46.646L53.0738 36.4855L50.7784 30.8408L47.3353 27.4539L43.8923 29.7118L39.3016 28.5829L40.4492 25.1961H37.0062V20.6803L41.5969 17.2934L40.4492 11.6487L43.8923 10.5197V6.00395H47.3353V10.5197L50.7784 11.6487L49.6307 17.2934Z"
    stroke="#6C7482" stroke-width="2"/>
</svg>
