<svg width="56" height="48" viewBox="0 0 56 48" fill="none" xmlns="http://www.w3.org/2000/svg">
<path d="M21.9157 7.23564L24.7409 2.72717L49.7439 2L53.5 17.8524L47.3425 23.2334M21.9157 7.23564L12.7338 4.90869L2 20.761L6.5183 25.5603M21.9157 7.23564C21.9157 7.23564 20.0793 10.1443 17.8191 13.9256C15.559 17.7069 21.0681 21.0519 23.3283 17.8524C25.5884 14.6528 28.2724 10.4352 28.2724 10.4352L47.3425 23.2334M6.5183 25.5603C6.5183 25.5603 3.41057 29.9233 2.84553 31.6685C2.13923 34.1409 4.25813 36.0316 6.09452 36.0316C8.07216 36.177 9.20234 34.2865 9.20234 34.2865M6.5183 25.5603C6.5183 25.5603 7.0142 24.93 7.2247 24.6878C9.62612 21.9245 13.5108 23.6697 13.1576 27.3056C13.0601 28.3095 12.0275 29.8004 12.0275 29.8004M17.678 33.7047C17.678 33.7047 18.6668 32.1777 19.2318 31.8141C21.492 30.3597 25.0235 32.614 23.6109 35.8862M17.678 33.7047C17.678 33.7047 19.0906 31.8141 18.9493 30.5052C18.808 28.6145 16.9717 26.7239 14.429 27.451C12.8751 27.8873 12.0275 29.8004 12.0275 29.8004M17.678 33.7047L14.5702 38.6495M23.6109 35.8862C26.1536 34.141 28.555 36.6134 27.7074 38.7949C26.8599 40.9764 26.1536 42.1399 26.1536 42.1399M23.6109 35.8862L19.0906 42.4308M30.25 37.1951L33.3577 39.2312M34.3466 31.5232L37.7368 33.7047M38.1606 25.5604L43.3872 29.0508M43.3872 29.0508C48.6138 33.5593 52.8517 26.2876 47.3425 23.2334M43.3872 29.0508C46.9187 31.2323 44.5173 36.9043 40.2795 35.3045C39.5732 34.8682 38.8275 34.4319 37.7368 33.7047M12.0275 29.8004L9.20234 34.2865M9.20234 34.2865C9.20234 34.2865 8.21352 35.8862 8.6373 37.1951C9.06108 38.5041 10.0266 39.7304 12.0275 39.813C13.4401 39.813 13.8639 39.5221 14.5702 38.6495M14.5702 38.6495C14.5702 38.6495 13.6128 40.6856 14.994 42.2853C16.1241 43.5943 19.0906 42.4308 19.0906 42.4308M19.0906 42.4308C18.1075 44.176 19.4701 44.9468 19.9381 45.3395C21.0682 46.0666 23.1871 46.3575 24.3172 45.194C25.4473 44.0306 26.1536 42.1399 26.1536 42.1399M37.7368 33.7047C37.7368 33.7047 40.6672 35.1992 40.1382 37.9223C39.9514 38.884 38.8669 40.831 36.6067 40.6856C35.1969 40.5949 34.5061 39.9701 33.3577 39.2312M33.3577 39.2312C33.3577 39.2312 34.9116 40.1038 35.1941 41.7036C35.3574 42.6283 35.2789 43.4488 34.7703 44.3214C33.9228 45.7758 31.7507 46.5942 30.25 45.4849C29.4625 44.9028 26.1536 42.1399 26.1536 42.1399" stroke="#F82249" stroke-width="3"/>
</svg>
