<svg width="0" height="0" class="hidden">
  <symbol xmlns="http://www.w3.org/2000/svg" viewBox="0 0 25 24" id="cart">
    <path fill-rule="evenodd" clip-rule="evenodd"
          d="M22.99 4.682c0-.376-.333-.682-.744-.682H9.264c-.411 0-.744.306-.744.682v1.366c0 .376.333.682.744.682h12.982c.41 0 .744-.306.744-.682V4.682zm0 6.629c0-.376-.333-.682-.744-.682H9.264c-.411 0-.744.306-.744.682v1.366c0 .376.333.682.744.682h12.982c.41 0 .744-.306.744-.682V11.31zm0 6.641c0-.377-.333-.683-.744-.683H9.264c-.411 0-.744.306-.744.683v1.365c0 .377.333.683.744.683h12.982c.41 0 .744-.306.744-.683v-1.365zM6.16 4.682A.688.688 0 005.467 4H3.683a.688.688 0 00-.693.682v1.366c0 .376.31.682.693.682h1.784a.688.688 0 00.693-.682V4.682zm0 6.629a.688.688 0 00-.693-.682H3.683a.688.688 0 00-.693.682v1.366c0 .376.31.682.693.682h1.784a.688.688 0 00.693-.682V11.31zm0 6.641a.688.688 0 00-.693-.683H3.683a.688.688 0 00-.693.683v1.365c0 .377.31.683.693.683h1.784a.688.688 0 00.693-.683v-1.365z"></path>
  </symbol>
  <symbol xmlns="http://www.w3.org/2000/svg" viewBox="0 0 24 24" id="chevron-down">
    <path
      d="M12.466 15.675l5.34-5.028a.596.596 0 000-.879l-.622-.586a.689.689 0 00-.932-.001L12 13.166 7.748 9.181a.689.689 0 00-.932 0l-.623.587a.596.596 0 000 .879l5.34 5.028a.689.689 0 00.933 0z"></path>
  </symbol>
  <symbol xmlns="http://www.w3.org/2000/svg" viewBox="0 0 25 24" id="close">
    <path d="M6.5 6l12 12m-12 0l12-12" stroke="#F82249" stroke-width="2"></path>
  </symbol>
  <symbol xmlns="http://www.w3.org/2000/svg" viewBox="0 0 25 24" id="filter">
    <path
      d="M22.18 11.245H10.71a2.829 2.829 0 00-5.482 0H3.706a.71.71 0 100 1.42h1.522a2.829 2.829 0 005.482 0h11.47a.71.71 0 100-1.42zm0-7.113h-2.233a2.829 2.829 0 00-5.483 0H3.706a.71.71 0 100 1.42h10.758a2.829 2.829 0 005.483 0h2.232a.71.71 0 100-1.42zm0 14.218h-3.654a2.829 2.829 0 00-5.483 0H3.706a.71.71 0 000 1.421h9.337a2.829 2.829 0 005.483 0h3.653a.71.71 0 000-1.42z"></path>
  </symbol>
  <symbol xmlns="http://www.w3.org/2000/svg" viewBox="0 0 20 18" id="search">
    <path
      d="M18.674 16l-4.715-4.716a7.108 7.108 0 001.347-4.126C15.306 3.2 12.106 0 8.148 0A7.152 7.152 0 00.99 7.158c0 3.958 3.2 7.158 7.158 7.158a7.109 7.109 0 004.127-1.348l4.715 4.716c.421.421 1.18.421 1.684 0 .506-.505.506-1.179 0-1.684zM8.148 12.632a5.463 5.463 0 01-5.474-5.474 5.463 5.463 0 015.474-5.474 5.463 5.463 0 015.474 5.474 5.463 5.463 0 01-5.474 5.474z"></path>
  </symbol>
  <symbol xmlns="http://www.w3.org/2000/svg" viewBox="0 0 20 20" id="chevron-right">
    <path
      d="M13.063 10.389l-4.19 4.45a.496.496 0 01-.733 0l-.488-.519a.574.574 0 01-.001-.776L10.97 10 7.65 6.456a.574.574 0 010-.776l.49-.519a.496.496 0 01.731 0l4.19 4.45a.574.574 0 010 .778z"></path>
  </symbol>
  <symbol xmlns="http://www.w3.org/2000/svg" viewBox="0 0 24 24" id="arrow-right">
    <path d="M3 12h17.5m0 0l-7-8m7 8l-7 8" stroke-width="2"></path>
  </symbol>
  <symbol fill="none" xmlns="http://www.w3.org/2000/svg" viewBox="0 0 24 24" id="arrow-left">
    <path d="M21 12H3.5m0 0l7 8m-7-8l7-8" stroke-width="2"></path>
  </symbol>
  <symbol xmlns="http://www.w3.org/2000/svg" viewBox="0 0 19 28" id="map">
    <path
      d="M9.717.668c-4.99 0-9.05 4.06-9.05 9.05 0 2.005 1.18 5.055 3.716 9.598 1.73 3.1 3.451 5.717 3.524 5.828L9.15 27.03a.678.678 0 001.132 0l1.245-1.886c.072-.11 1.78-2.705 3.524-5.828 2.535-4.543 3.715-7.592 3.715-9.598 0-4.99-4.06-9.05-9.05-9.05zm4.15 17.987a100.428 100.428 0 01-3.471 5.742l-.679 1.028-.678-1.028a101.582 101.582 0 01-3.472-5.742c-2.352-4.214-3.544-7.22-3.544-8.937 0-4.242 3.452-7.694 7.694-7.694 4.243 0 7.694 3.452 7.694 7.694 0 1.717-1.192 4.723-3.543 8.937z"></path>
    <path
      d="M9.718 4.645A5.024 5.024 0 004.7 9.662a5.024 5.024 0 005.018 5.018 5.024 5.024 0 005.018-5.018 5.023 5.023 0 00-5.018-5.017zm0 8.679a3.666 3.666 0 01-3.662-3.662 3.666 3.666 0 013.662-3.661 3.666 3.666 0 013.662 3.661 3.666 3.666 0 01-3.662 3.662z"></path>
  </symbol>
  <symbol xmlns="http://www.w3.org/2000/svg" viewBox="0 0 24 24" id="plus">
    <path fill-rule="evenodd" clip-rule="evenodd" d="M13 6h-2v5H6v2h5v5h2v-5h5v-2h-5V6z"></path>
  </symbol>
  <symbol xmlns="http://www.w3.org/2000/svg" viewBox="0 0 24 24" id="minus">
    <path d="M6 11h12v2H6z"></path>
  </symbol>
  <symbol xmlns="http://www.w3.org/2000/svg" viewBox="0 0 20 20" id="arrow-down">
    <path d="M9.791 2.708v14.583m0 0l6.667-5.833m-6.667 5.833l-6.666-5.833" stroke-width="2"></path>
  </symbol>
  <symbol xmlns="http://www.w3.org/2000/svg" viewBox="0 0 25 20" id="mail">
    <path
      d="M23.81.667H1.524c-.473 0-.857.418-.857.933v16.8c0 .516.384.934.857.934H23.81c.473 0 .857-.418.857-.934V1.6c0-.515-.384-.933-.857-.933zm-1.406 1.867l-9.737 8.155L2.93 2.534h19.474zm.549 14.933H2.38V4.429l9.764 8.178a.802.802 0 001.044 0l9.764-8.178v13.038z"></path>
  </symbol>
  <symbol xmlns="http://www.w3.org/2000/svg" viewBox="0 0 32 32" id="phone">
    <path
      d="M24.576 19.88l-3.016-.343a2.364 2.364 0 00-1.948.676L17.427 22.4A17.868 17.868 0 019.6 14.572l2.197-2.197c.51-.51.76-1.223.677-1.947l-.345-2.993a2.377 2.377 0 00-2.363-2.102H7.713c-1.342 0-2.459 1.116-2.376 2.458.63 10.142 8.74 18.242 18.87 18.871 1.343.083 2.46-1.033 2.46-2.375v-2.055a2.354 2.354 0 00-2.09-2.351z"></path>
  </symbol>
</svg>
